<svg width="114" height="114" viewBox="0 0 114 114" fill="none" xmlns="http://www.w3.org/2000/svg">
<path d="M57 114C88.4802 114 114 88.4802 114 57C114 25.5198 88.4802 0 57 0C25.5198 0 0 25.5198 0 57C0 88.4802 25.5198 114 57 114Z" fill="#CAB6C2"/>
<path fill-rule="evenodd" clip-rule="evenodd" d="M85.8237 85.8104C81.8639 85.8104 77.904 85.8104 73.9447 85.8104C65.8989 85.8104 57.866 85.8104 49.8207 85.8104C43.4527 85.8104 37.0714 85.8104 30.7029 85.8104H29.2702C29.2008 85.8104 29.2654 85.8708 29.2654 85.81C29.273 83.7444 29.2654 81.6863 29.2654 79.6189C28.9502 79.9341 28.635 80.2494 28.3197 80.5646C32.2791 80.5646 36.239 80.5646 40.1988 80.5646C48.2445 80.5646 56.277 80.5646 64.3223 80.5646C70.6908 80.5646 77.0721 80.5646 83.4401 80.5646C84.2343 80.5646 85.0286 80.5646 85.8237 80.5646C85.5085 80.2494 85.1928 79.9341 84.8776 79.6189C84.8776 82.002 84.8776 84.373 84.8776 86.7561C84.8776 87.1148 85.0946 86.1214 85.324 86.2691C85.878 86.6268 86.769 87.6207 86.769 86.7561C86.769 84.373 86.769 82.002 86.769 79.6189C86.769 79.1016 86.3405 78.6727 85.8233 78.6727C81.8634 78.6727 77.9036 78.6727 73.9437 78.6727C65.898 78.6727 57.8655 78.6727 49.8203 78.6727C43.4522 78.6727 37.071 78.6727 30.7024 78.6727C29.9082 78.6727 29.114 78.6727 28.3193 78.6727C27.802 78.6727 27.373 79.1012 27.373 79.6189C27.373 82.002 27.373 84.373 27.373 86.7561C27.373 87.2734 27.8016 87.7023 28.3193 87.7023C32.2786 87.7023 36.2385 87.7023 40.1983 87.7023C48.244 87.7023 56.2766 87.7023 64.3218 87.7023C70.6903 87.7023 77.0716 87.7023 83.4396 87.7023C84.2339 87.7023 85.0281 87.7023 85.8233 87.7023C86.6685 87.7023 86.9295 86.7986 86.6067 86.2403C86.4618 85.9907 86.2008 85.8109 85.8233 85.8109L85.8237 85.8104Z" fill="#585858"/>
<path fill-rule="evenodd" clip-rule="evenodd" d="M83.541 79.6186C83.541 74.0698 83.541 68.5088 83.541 62.9605C83.541 57.1214 83.541 51.2829 83.541 45.4443C83.541 45.4316 83.541 45.4188 83.541 45.4188C83.541 44.1956 81.649 44.1956 81.649 45.4188C81.649 50.9672 81.649 56.5287 81.649 62.077C81.649 67.9161 81.649 73.7541 81.649 79.5932C81.649 79.6054 81.649 79.6186 81.649 79.6186C81.649 80.8291 83.541 80.8291 83.541 79.6186Z" fill="#585858"/>
<path fill-rule="evenodd" clip-rule="evenodd" d="M32.2288 74.9653C32.2288 69.0385 32.2288 63.1117 32.2288 57.1844C32.2288 53.2628 32.2288 49.3284 32.2288 45.4063C32.2288 44.1826 30.3369 44.1826 30.3369 45.4063C30.3369 51.3331 30.3369 57.2599 30.3369 63.1872C30.3369 67.1088 30.3369 71.0432 30.3369 74.9653C30.3369 76.189 32.2288 76.189 32.2288 74.9653Z" fill="#585858"/>
<path fill-rule="evenodd" clip-rule="evenodd" d="M40.4133 44.4605H29.2775L29.2652 32.3294H46.9706C49.1773 32.3294 51.3844 32.3294 53.6034 32.3294C54.8271 32.3294 54.8271 30.4375 53.6034 30.4375C47.3863 30.4375 41.1693 30.4375 34.9523 30.4375C32.7456 30.4375 30.5389 30.4375 28.3195 30.4375C27.8023 30.4375 27.3733 30.8665 27.3733 31.3837C27.3733 36.0618 27.3733 40.7409 27.3733 45.4067C27.3733 45.9235 27.8018 46.3524 28.3195 46.3524C32.3548 46.3524 36.3775 46.3524 40.4128 46.3524C41.636 46.3524 41.636 44.461 40.4128 44.461L40.4133 44.4605Z" fill="#585858"/>
<path fill-rule="evenodd" clip-rule="evenodd" d="M60.9171 32.3294C67.1591 32.3294 73.3894 32.3294 79.6314 32.3294C81.7121 32.3294 83.7928 32.3294 85.873 32.3294C85.5578 32.0136 85.2425 31.6984 84.9273 31.3832C84.9273 36.0613 84.9273 40.7403 84.9273 45.4062C85.2425 45.0905 85.5578 44.7752 85.873 44.46C81.9009 44.46 77.916 44.46 73.9434 44.46C72.7202 44.46 72.7202 46.3514 73.9434 46.3514C77.916 46.3514 81.9009 46.3514 85.873 46.3514C86.3903 46.3514 86.8192 45.9229 86.8192 45.4052C86.8192 40.7271 86.8192 36.0485 86.8192 31.3827C86.8192 30.8659 86.3907 30.4365 85.873 30.4365C79.6315 30.4365 73.4012 30.4365 67.1591 30.4365C65.0785 30.4365 62.9978 30.4365 60.9171 30.4365C59.6939 30.4365 59.6939 32.3284 60.9171 32.3284V32.3294Z" fill="#585858"/>
<path fill-rule="evenodd" clip-rule="evenodd" d="M74.6002 44.7376C70.3506 40.16 66.101 35.5819 61.8509 30.9921C60.5394 29.5796 59.2402 28.1799 57.9288 26.7675C57.5885 26.4017 56.9325 26.4017 56.5923 26.7675C52.3427 31.3451 48.0931 35.9227 43.8425 40.513C42.5315 41.9254 41.2323 43.3251 39.9209 44.7376C39.0884 45.6328 40.4254 46.9693 41.2578 46.0741C45.5074 41.4969 49.7571 36.9189 54.0071 32.329C55.3181 30.9166 56.6178 29.5169 57.9288 28.1044C57.4875 28.1044 57.0335 28.1044 56.5923 28.1044C60.8419 32.6815 65.0915 37.2596 69.3416 41.8495C70.6526 43.2619 71.9523 44.6616 73.2632 46.0741C74.0957 46.9693 75.4322 45.6328 74.6002 44.7376Z" fill="#585858"/>
<path fill-rule="evenodd" clip-rule="evenodd" d="M29.7571 79.3658C29.0379 77.0454 31.3965 74.9392 33.6032 76.1247C34.6749 76.7051 35.6334 75.0657 34.5617 74.4852C32.8085 73.5395 30.8288 73.7665 29.2904 75.0025C27.8657 76.1374 27.4117 78.1803 27.9284 79.8703C28.0006 80.0992 27.9832 80.4219 28.1115 80.5824C28.2559 80.7622 28.5528 80.7655 28.7618 80.7532C29.3116 80.7207 29.9624 80.0402 29.7571 79.3658Z" fill="#585858"/>
<path fill-rule="evenodd" clip-rule="evenodd" d="M34.9908 75.5573C35.8355 73.4893 38.3451 72.4931 40.3753 73.4133C42.557 74.3968 43.3767 77.0702 42.2167 79.1386C41.624 80.1976 43.2502 81.1561 43.8562 80.0971C45.5206 77.1207 44.4234 73.3001 41.347 71.7866C38.1691 70.2104 34.474 71.8749 33.1753 75.0655C32.9865 75.5445 33.3773 76.0995 33.8312 76.2255C34.3735 76.3642 34.802 76.0363 34.9912 75.5573H34.9908Z" fill="#585858"/>
<path d="M29.2671 85.7963H29.2102V85.8599H29.2671V85.7963Z" fill="#585858"/>
<path d="M86.5065 85.3133H84.8775V87.2859H86.5065V85.3133Z" fill="#585858"/>
<path d="M86.5744 85.8101H84.4664V87.1711H86.5744V85.8101Z" fill="#585858"/>
<path d="M86.7389 85.8761H86.1273V86.8242H86.7389V85.8761Z" fill="#585858"/>
<path fill-rule="evenodd" clip-rule="evenodd" d="M86.3712 86.5031H86.7473L86.7511 86.9363C86.7407 87.0071 86.7058 87.0797 86.6694 87.142L86.3712 87.1368V86.5031Z" fill="#585858"/>
<path fill-rule="evenodd" clip-rule="evenodd" d="M57.2603 28.8247L56.2343 27.804L58.2074 27.9465L57.2603 28.8247Z" fill="#585858"/>
<path fill-rule="evenodd" clip-rule="evenodd" d="M85.6145 32.4546L84.9278 32.3805L84.9231 31.2007L85.9637 32.3295L85.6145 32.4546Z" fill="#585858"/>
<path fill-rule="evenodd" clip-rule="evenodd" d="M84.9124 45.8433L84.4858 44.4605L86.4107 44.4398L84.9124 45.8433Z" fill="#585858"/>
<path fill-rule="evenodd" clip-rule="evenodd" d="M84.1125 79.2389L84.289 80.5636L86.4787 80.5608L85.2451 79.2795L84.1125 79.2389Z" fill="#585858"/>
<path d="M35.0488 53.6896H43.8699C44.2781 53.6896 44.6495 53.8557 44.918 54.1242C45.1865 54.3927 45.3527 54.7632 45.3527 55.1723V67.4073C45.3527 67.8155 45.1865 68.1864 44.918 68.4549C44.6495 68.7234 44.2786 68.89 43.8699 68.89H35.0488C34.6406 68.89 34.2697 68.7234 34.0012 68.4549C33.7326 68.1864 33.566 67.8159 33.566 67.4073V55.1723C33.566 54.7637 33.7326 54.3927 34.0012 54.1242C34.2697 53.8557 34.6401 53.6896 35.0488 53.6896ZM43.6169 55.4248H35.3018V67.1538H43.6169V55.4248Z" fill="#585858"/>
<path d="M69.9831 53.6896H78.8037C79.2124 53.6896 79.5833 53.8557 79.8519 54.1242C80.1204 54.3927 80.2865 54.7632 80.2865 55.1723V67.4073C80.2865 67.8155 80.1204 68.1864 79.8519 68.4549C79.5833 68.7234 79.2129 68.89 78.8037 68.89H69.9831C69.5745 68.89 69.2035 68.7234 68.935 68.4549C68.6665 68.1864 68.5004 67.8159 68.5004 67.4073V55.1723C68.5004 54.7637 68.6665 54.3927 68.935 54.1242C69.2035 53.8557 69.574 53.6896 69.9831 53.6896ZM78.5508 55.4248H70.2356V67.1538H78.5508V55.4248Z" fill="#585858"/>
<path d="M51.0567 52.7469H63.1671C63.8141 52.7469 64.4021 53.0112 64.8277 53.4368C65.2529 53.862 65.5172 54.4505 65.5172 55.0975V77.9458C65.5172 78.5933 65.2529 79.1808 64.8277 79.6065C64.4021 80.0317 63.8136 80.296 63.1671 80.296H51.0567C50.4093 80.296 49.8213 80.0317 49.3961 79.6065C48.9704 79.1808 48.7061 78.5928 48.7061 77.9458V55.0975C48.7061 54.45 48.9704 53.862 49.3961 53.4368C49.8213 53.0112 50.4097 52.7469 51.0567 52.7469ZM63.1671 54.3736H51.0567C50.8581 54.3736 50.6778 54.4552 50.5461 54.5869C50.4144 54.7186 50.3323 54.8993 50.3323 55.098V77.9463C50.3323 78.1445 50.414 78.3253 50.5461 78.4569C50.6773 78.5881 50.8581 78.6702 51.0567 78.6702H63.1671C63.3653 78.6702 63.546 78.5886 63.6777 78.4569C63.8089 78.3257 63.891 78.1445 63.891 77.9463V55.098C63.891 54.8993 63.8093 54.719 63.6777 54.5869C63.5465 54.4557 63.3653 54.3736 63.1671 54.3736Z" fill="#585858"/>
<path d="M57.2602 37.2278C58.7869 37.2278 60.1705 37.8479 61.171 38.8484C62.1719 39.8493 62.7916 41.2325 62.7916 42.7591C62.7916 44.2811 62.1724 45.6642 61.171 46.6661L61.1672 46.6699C60.1653 47.6708 58.7822 48.2905 57.2602 48.2905C55.7336 48.2905 54.3508 47.6713 53.3494 46.6699C52.3494 45.6699 51.7289 44.2858 51.7289 42.7591C51.7289 41.2348 52.349 39.8531 53.3494 38.8521L53.3532 38.8484C54.3542 37.8484 55.7359 37.2278 57.2602 37.2278ZM59.7963 40.2226C59.1479 39.5742 58.2508 39.1726 57.2602 39.1726C56.2682 39.1726 55.3707 39.5737 54.7222 40.2207C54.0752 40.8691 53.6741 41.7667 53.6741 42.7587C53.6741 43.7492 54.0757 44.6463 54.7241 45.2947C55.373 45.9436 56.2697 46.3448 57.2602 46.3448C58.2536 46.3448 59.1502 45.9446 59.7963 45.2985L59.8001 45.2947C60.4461 44.6487 60.8463 43.752 60.8463 42.7587C60.8463 41.7681 60.4452 40.8715 59.7963 40.2226Z" fill="#585858"/>
</svg>
