<svg width="114" height="114" viewBox="0 0 114 114" fill="none" xmlns="http://www.w3.org/2000/svg">
<path d="M57 114C88.4803 114 114 88.4802 114 57C114 25.5198 88.4803 0 57 0C25.5198 0 0 25.5198 0 57C0 88.4802 25.5198 114 57 114Z" fill="#ECE3C4"/>
<path d="M34.9752 26C34.7168 26.0014 34.4696 26.1066 34.287 26.2931C34.1044 26.4796 34.0014 26.7325 34 26.9959V29.9948C33.9982 30.2597 34.0993 30.5145 34.2814 30.7039L35.2645 31.7079C35.4494 31.8935 35.6994 31.9972 35.9588 31.9948V65.9997C35.8296 65.9992 35.7018 66.025 35.5819 66.0752C35.463 66.1254 35.3539 66.199 35.2631 66.2928C35.1713 66.3865 35.0992 66.4964 35.0496 66.6188C35.0005 66.7408 34.9752 66.8718 34.9756 67.0033C34.9766 67.1352 35.0019 67.2648 35.0519 67.3858C35.1016 67.5067 35.1741 67.6167 35.2659 67.7095C35.3572 67.8022 35.4649 67.8754 35.5842 67.9251C35.7036 67.9748 35.8309 68.0006 35.9592 67.9997V82.0047C35.6999 82.0028 35.4503 82.106 35.2649 82.292L34.2818 83.2961C34.1002 83.485 33.9986 83.7403 34.0005 84.0052V87.0021C34.0014 87.2661 34.104 87.5195 34.2865 87.7064C34.4691 87.8934 34.7172 87.9986 34.9756 88H80.022C80.2809 87.9986 80.529 87.8934 80.7112 87.7064C80.8937 87.5195 80.9967 87.2661 80.9972 87.0021V84.0052C80.9972 83.8737 80.9714 83.7432 80.9223 83.6213C80.8727 83.4998 80.7996 83.3894 80.7083 83.2961L79.7332 82.292C79.5482 82.1065 79.2983 82.0028 79.0384 82.0047V67.9997C79.1676 68.0006 79.2945 67.9748 79.4134 67.9251C79.5323 67.8754 79.641 67.8022 79.7322 67.7095C79.824 67.6167 79.8956 67.5072 79.9457 67.3858C79.9958 67.2648 80.0215 67.1347 80.022 67.0033C80.0225 66.8713 79.9977 66.7408 79.948 66.6188C79.8989 66.4964 79.8263 66.386 79.735 66.2928C79.6437 66.199 79.5352 66.1259 79.4158 66.0752C79.2964 66.025 79.1681 65.9992 79.0389 65.9997V31.9948C79.2987 31.9972 79.5482 31.8939 79.7336 31.7075L80.7088 30.7034C80.8005 30.6106 80.8731 30.5007 80.9237 30.3783C80.9733 30.2568 80.9995 30.1258 81 29.9943V26.9959C80.9986 26.7315 80.8956 26.4786 80.7125 26.2921C80.5295 26.1057 80.2814 26.0005 80.0225 26H34.9761H34.9752ZM35.9583 27.9948H79.0384V29.5807L78.6349 29.9948H36.3558L35.9578 29.5807V27.9948H35.9583ZM37.9185 31.9948H56.5157V65.9997H37.9185V31.9948ZM58.4735 31.9948H77.0806V65.9997H58.4735V31.9948ZM40.8523 33.9949C40.7231 33.9958 40.5963 34.0216 40.4778 34.0728C40.3594 34.1235 40.2517 34.1976 40.1609 34.2913C40.07 34.3845 39.9984 34.4945 39.9497 34.6169C39.9011 34.7384 39.8758 34.8684 39.8762 34.9994V63.0013C39.8776 63.2652 39.9806 63.5181 40.1627 63.7046C40.3458 63.8911 40.593 63.9963 40.8519 63.9972C41.1098 63.9963 41.3579 63.8911 41.54 63.7046C41.7226 63.5181 41.8256 63.2652 41.827 63.0013V34.9994C41.8275 34.8679 41.8022 34.7384 41.7535 34.6169C41.7049 34.495 41.6332 34.3845 41.5424 34.2913C41.4521 34.1976 41.3444 34.124 41.2255 34.0728C41.107 34.0221 40.9797 33.9958 40.8514 33.9949H40.8523ZM74.1463 33.9949C74.017 33.9944 73.8888 34.0202 73.7694 34.0699C73.6496 34.1201 73.5405 34.1942 73.4492 34.2875C73.3574 34.3812 73.2853 34.4916 73.2357 34.614C73.1861 34.736 73.1608 34.8675 73.1613 34.9989V63.0008C73.1617 63.1328 73.1875 63.2623 73.2376 63.3838C73.2877 63.5048 73.3602 63.6152 73.452 63.708C73.5437 63.8002 73.6519 63.8739 73.7708 63.9236C73.8902 63.9729 74.018 63.9982 74.1463 63.9972C74.4051 63.9963 74.6528 63.8911 74.8349 63.7046C75.0175 63.5181 75.1205 63.2652 75.1219 63.0013V34.9994C75.1223 34.8679 75.0971 34.7384 75.0484 34.6169C74.9997 34.495 74.9281 34.3845 74.8372 34.2913C74.7464 34.1976 74.6392 34.124 74.5203 34.0728C74.4019 34.0221 74.2741 33.9958 74.1458 33.9949H74.1463ZM53.5813 46.9958C53.322 46.9972 53.0734 47.1034 52.8904 47.2917C52.7078 47.4796 52.6052 47.735 52.6062 47.9999V49.9999C52.6066 50.2643 52.7097 50.5177 52.8922 50.7047C53.0748 50.8916 53.3229 50.9973 53.5813 50.9977C53.7105 50.9982 53.8379 50.9729 53.9568 50.9232C54.0762 50.8734 54.1843 50.7998 54.2756 50.7071C54.3669 50.6143 54.439 50.5043 54.4891 50.3824C54.5387 50.2614 54.5644 50.1309 54.5644 49.9994V47.9994C54.5654 47.8674 54.5401 47.7369 54.491 47.615C54.4418 47.4926 54.3688 47.3821 54.2775 47.2889C54.1862 47.1952 54.0776 47.122 53.9582 47.0713C53.8389 47.0211 53.7105 46.9948 53.5813 46.9953V46.9958ZM61.4172 46.9958C61.288 46.9953 61.1598 47.0216 61.0404 47.0718C60.9205 47.122 60.812 47.1956 60.7211 47.2894C60.6298 47.3831 60.5573 47.493 60.5076 47.6154C60.4585 47.7374 60.4336 47.8684 60.4341 47.9999V49.9999C60.4341 50.1319 60.4599 50.2619 60.5095 50.3829C60.5591 50.5043 60.6317 50.6148 60.723 50.7075C60.8148 50.8003 60.9224 50.8739 61.0418 50.9236C61.1607 50.9734 61.2885 50.9987 61.4172 50.9982C61.6756 50.9977 61.9238 50.8921 62.1064 50.7051C62.2885 50.5182 62.3919 50.2648 62.3919 50.0004V48.0003C62.3933 47.7354 62.2908 47.4806 62.1078 47.2922C61.9252 47.1038 61.6761 46.9977 61.4168 46.9963L61.4172 46.9958ZM37.9185 67.9992H56.5157V74.0017H37.9185V67.9992ZM58.4735 67.9992H77.0806V74.0017H58.4735V67.9992ZM46.7295 69.9997C46.6003 69.9988 46.472 70.0246 46.3527 70.0748C46.2328 70.125 46.1242 70.1991 46.0334 70.2928C45.9416 70.3861 45.87 70.4965 45.8199 70.6184C45.7707 70.7408 45.7459 70.8718 45.7464 71.0038C45.7469 71.1348 45.7722 71.2649 45.8222 71.3858C45.8723 71.5068 45.9444 71.6172 46.0362 71.7095C46.1274 71.8023 46.2356 71.8754 46.355 71.9252C46.4739 71.9749 46.6012 72.0002 46.73 72.0002H47.7047C47.8339 72.0002 47.9607 71.9749 48.0797 71.9252C48.1986 71.8754 48.3072 71.8023 48.3984 71.7095C48.4902 71.6172 48.5618 71.5073 48.6124 71.3858C48.662 71.2649 48.6878 71.1343 48.6882 71.0038C48.6887 70.8718 48.6639 70.7408 48.6147 70.6184C48.5651 70.4965 48.4926 70.3856 48.4013 70.2928C48.31 70.1991 48.2018 70.1255 48.082 70.0748C47.9626 70.0246 47.8343 69.9988 47.7051 69.9997H46.7304H46.7295ZM67.2939 69.9997C67.1647 69.9988 67.0365 70.0241 66.9166 70.0743C66.7972 70.1245 66.6882 70.1986 66.5969 70.2919C66.5051 70.3856 66.433 70.496 66.3834 70.6179C66.3337 70.7403 66.3085 70.8714 66.3089 71.0038C66.3099 71.1353 66.3352 71.2653 66.3857 71.3863C66.4354 71.5073 66.5079 71.6177 66.5997 71.7105C66.6914 71.8028 66.7996 71.8764 66.9185 71.9256C67.0379 71.9754 67.1657 72.0007 67.2939 72.0002H68.2691C68.3983 72.0002 68.5252 71.9749 68.6441 71.9252C68.763 71.8754 68.8716 71.8023 68.9629 71.7095C69.0547 71.6172 69.1263 71.5073 69.1768 71.3858C69.2264 71.2649 69.2522 71.1343 69.2527 71.0038C69.2531 70.8718 69.2284 70.7408 69.1792 70.6184C69.1296 70.4965 69.057 70.3856 68.9657 70.2928C68.8744 70.1991 68.7658 70.1255 68.6465 70.0748C68.5271 70.0246 68.3988 69.9988 68.2696 69.9997H67.2944H67.2939ZM37.9185 76.0022H77.0806V82.0042H37.9185V76.0022ZM46.7333 78.0018C46.4734 78.0008 46.2244 78.1055 46.0394 78.292C45.8555 78.4785 45.7511 78.7328 45.7501 78.9977C45.7497 79.1297 45.775 79.2607 45.8241 79.3826C45.8733 79.5045 45.9458 79.6159 46.0371 79.7087C46.1289 79.8019 46.237 79.8756 46.3564 79.9262C46.4757 79.9764 46.6041 80.0023 46.7333 80.0018H47.7084C47.8372 80.0013 47.964 79.9755 48.0829 79.9238C48.2014 79.8732 48.309 79.7991 48.3999 79.7058C48.4907 79.6126 48.5623 79.5021 48.611 79.3802C48.6592 79.2588 48.6845 79.1287 48.684 78.9972C48.6831 78.7338 48.5801 78.4804 48.3975 78.2944C48.2149 78.1079 47.9673 78.0022 47.7089 78.0013H46.7337L46.7333 78.0018ZM67.2939 78.0018C67.1652 78.0008 67.0379 78.0266 66.9185 78.0763C66.7996 78.1256 66.691 78.1987 66.5997 78.2915C66.5079 78.3843 66.4358 78.4942 66.3857 78.6157C66.3357 78.7366 66.3099 78.8672 66.3089 78.9982C66.3085 79.1302 66.3337 79.2616 66.3834 79.3836C66.4325 79.5055 66.5051 79.6169 66.5969 79.7096C66.6886 79.8034 66.7972 79.877 66.9166 79.9277C67.0365 79.9774 67.1647 80.0032 67.2939 80.0023H68.2691C68.3983 80.0027 68.5266 79.9769 68.6459 79.9267C68.7653 79.8765 68.8744 79.8024 68.9652 79.7092C69.0565 79.6159 69.1286 79.505 69.1787 79.3831C69.2279 79.2612 69.2527 79.1302 69.2522 78.9982C69.2513 78.7333 69.1469 78.4794 68.9629 78.2925C68.7789 78.106 68.5289 78.0013 68.2691 78.0022H67.2939V78.0018ZM36.3562 84.0042H78.6353L79.0389 84.4169V86.0048H35.9588V84.4169L36.3567 84.0042H36.3562Z" fill="#585858"/>
</svg>
