<svg width="114" height="114" viewBox="0 0 114 114" fill="none" xmlns="http://www.w3.org/2000/svg">
<path d="M57 114C88.4802 114 114 88.4802 114 57C114 25.5198 88.4802 0 57 0C25.5197 0 0 25.5198 0 57C0 88.4802 25.5197 114 57 114Z" fill="#B2BDB7"/>
<path fill-rule="evenodd" clip-rule="evenodd" d="M92.7792 45.5622C92.7683 45.589 92.7528 45.6131 92.7316 45.6334C91.3373 47.2718 89.951 48.9093 88.5582 50.55C78.695 62.1666 68.8346 73.7851 58.9733 85.4027C58.903 85.5377 58.8015 85.6482 58.6718 85.731C58.4892 85.9026 58.2547 86.0131 58.0098 85.9988C57.7342 86.0131 57.4974 85.8961 57.3289 85.7171C57.2902 85.6949 57.2591 85.67 57.2346 85.6362C57.2256 85.6265 57.2171 85.6163 57.2077 85.6075C57.1468 85.5479 57.0987 85.4989 57.0657 85.4415C55.7271 83.8707 54.4007 82.3021 53.065 80.7294C43.1282 69.03 33.198 57.3319 23.2725 45.6367C23.2512 45.6159 23.2357 45.5941 23.2239 45.5696C23.179 45.5141 23.1423 45.4531 23.1102 45.3893L23.0856 45.3407L23.097 45.3532C23.062 45.2852 23.046 45.2265 23.0347 45.1631C23.0262 45.1368 23.0229 45.1132 23.0144 45.0868L23.0021 45.0512L23.0026 44.9819C22.9851 44.7188 23.0554 44.4616 23.2253 44.248L23.2319 44.229L23.2583 44.1962C27.5709 38.9042 31.8896 33.6182 36.1984 28.3229C36.3951 28.082 36.5659 27.8175 36.7896 27.5992C36.9609 27.3527 37.2373 27.2085 37.5166 27.1659C37.5733 27.1479 37.595 27.1257 37.6634 27.1127C38.1621 27.0189 38.6788 27.1086 39.1808 27.1086C41.9977 27.1086 44.815 27.1086 47.6318 27.1086C55.4105 27.1086 63.1891 27.1086 70.9673 27.1086C72.9641 27.1086 74.9859 26.864 76.9605 27.109C77.0256 27.109 77.0393 27.1243 77.0554 27.1386C77.4078 27.1215 77.7607 27.2677 77.9839 27.5377C79.0606 28.2711 79.7 29.4674 80.5431 30.4177C84.6085 35.0078 88.67 39.6006 92.7325 44.1934L92.7901 44.2586V44.2725C92.8509 44.3534 92.9028 44.445 92.9372 44.5384C92.941 44.5472 92.9443 44.5564 92.9467 44.5657L92.9481 44.5698C92.9486 44.5717 92.949 44.5731 92.949 44.5749C92.958 44.6059 92.9599 44.629 92.9646 44.6559C92.984 44.7322 92.9948 44.8006 92.9948 44.8801C92.9948 44.8875 92.9929 44.888 92.9939 44.8949L93 44.9171V44.9463C93 44.9773 92.9939 45.0064 92.9939 44.9907C92.9873 45.0582 92.9764 45.1211 92.9594 45.1798C92.9477 45.2325 92.9307 45.2778 92.9052 45.3435C92.875 45.4078 92.8405 45.4693 92.8028 45.5234C92.7943 45.5363 92.7868 45.5488 92.7792 45.5618V45.5622ZM73.367 43.8748C78.7941 43.8748 84.222 43.8748 89.6491 43.8748C85.7003 39.4147 81.7572 34.9509 77.8164 30.4894C77.7437 30.4112 77.6673 30.3326 77.5899 30.2549C77.5593 30.3558 77.5281 30.4561 77.4951 30.5541C76.1211 34.9953 74.7448 39.4351 73.367 43.8748ZM59.791 29.1752C62.7489 32.6216 65.7096 36.0663 68.6713 39.51C69.6004 40.5902 70.5908 41.6186 71.5094 42.7072C71.5311 42.6374 71.5528 42.5685 71.575 42.5005C72.949 38.0593 74.3258 33.6196 75.7035 29.1798C73.2457 29.1798 70.788 29.177 68.3307 29.1747C65.4836 29.1724 62.6371 29.1742 59.7905 29.1747L59.791 29.1752ZM57.5139 29.7403C53.3731 34.4505 49.2356 39.1645 45.0948 43.8748C53.0612 43.8748 61.0277 43.8748 68.9941 43.8748C69.2149 43.8748 69.4367 43.8748 69.6575 43.8748C65.612 39.1618 61.565 34.4492 57.5144 29.7403H57.5139ZM39.1322 29.2186C39.2091 29.4744 39.2837 29.7315 39.3624 29.9872C40.6642 34.254 41.9519 38.5255 43.2461 42.7941C47.235 38.2582 51.2215 33.719 55.208 29.1803C51.8505 29.1803 48.4939 29.1803 45.1358 29.1803C43.1352 29.1803 41.1318 29.3185 39.1322 29.2186ZM26.2087 43.8707C28.2678 43.8707 30.3269 43.8707 32.386 43.8707C35.3774 43.8707 38.3688 43.8707 41.3602 43.8707C41.28 43.602 41.1998 43.3324 41.1191 43.0633C39.8452 38.8501 38.567 34.6383 37.2869 30.4274C36.9627 30.7761 36.6216 31.1141 36.3229 31.4776C32.9403 35.6001 29.5781 39.7375 26.2092 43.8702L26.2087 43.8707ZM54.8386 79.5927C50.5756 68.3807 46.3154 57.1682 42.0533 45.9562C36.7952 45.9562 31.5376 45.9562 26.2795 45.9562C27.1722 47.0092 28.0677 48.0603 28.9609 49.1123C37.587 59.2723 46.2097 69.4346 54.8391 79.5923L54.8386 79.5927ZM70.4525 45.9516C62.6328 45.9516 54.8127 45.9516 46.993 45.9516C46.0974 45.9516 45.2014 45.9516 44.3063 45.9516C44.7725 47.1752 45.2368 48.3997 45.7029 49.6237C49.7895 60.3636 53.869 71.1063 57.9546 81.8471C58.2075 81.1151 58.4613 80.383 58.7166 79.6515C62.6286 68.4186 66.5401 57.1849 70.453 45.9516H70.4525ZM89.7024 45.947C87.6636 45.947 85.6248 45.947 83.586 45.947C79.9543 45.947 76.3231 45.947 72.6923 45.947C72.6423 46.0806 72.5923 46.2147 72.5451 46.3493C71.0333 50.6785 69.532 55.0119 68.0221 59.3421C65.6271 66.2105 63.2358 73.0813 60.8436 79.9511C61.03 79.731 61.2169 79.5114 61.4042 79.2917C70.8441 68.1819 80.2775 57.0679 89.7028 45.9465L89.7024 45.947Z" fill="#585858"/>
</svg>
