<svg width="35" height="35" viewBox="0 0 35 35" fill="none" xmlns="http://www.w3.org/2000/svg">
<path d="M17.3105 34.6209C26.8708 34.6209 34.6209 26.8708 34.6209 17.3105C34.6209 7.75015 26.8708 0 17.3105 0C7.75015 0 0 7.75015 0 17.3105C0 26.8708 7.75015 34.6209 17.3105 34.6209Z" fill="#ECE3C4"/>
<path fill-rule="evenodd" clip-rule="evenodd" d="M26.2998 22.6406L21.0532 17.3606L26.3165 12.114V22.6406H26.2998ZM9.23996 23.6265L14.5367 18.3297L15.7063 19.4827C16.1407 19.9171 16.6587 20.2179 17.3104 20.2179C17.9453 20.2179 18.48 19.9338 18.9144 19.4827L20.0841 18.3297L25.3808 23.6265H9.27338H9.23996ZM25.3808 11.0112L17.8284 18.5804C17.678 18.7308 17.5443 18.8143 17.2937 18.8143C17.0263 18.8143 16.9094 18.7308 16.759 18.5804L9.20654 11.0112H25.3808ZM8.30426 12.114L13.5676 17.3606L8.30426 22.6406V12.114Z" fill="#55575F"/>
</svg>
