<svg width="35" height="34" viewBox="0 0 35 34" fill="none" xmlns="http://www.w3.org/2000/svg">
<path d="M17.5 34C27.165 34 35 26.3888 35 17C35 7.61116 27.165 0 17.5 0C7.83502 0 0 7.61116 0 17C0 26.3888 7.83502 34 17.5 34Z" fill="#CAB6C2"/>
<path fill-rule="evenodd" clip-rule="evenodd" d="M23.3551 6.65569C22.9308 6.22432 22.4217 6 21.8277 6H13.1723C12.5953 6 12.0862 6.22432 11.6449 6.65569C11.2206 7.08707 11 7.6047 11 8.20863V25.7914C11 26.378 11.2206 26.8957 11.6449 27.3443C12.0692 27.7757 12.5783 28 13.1723 28H21.8277C22.4047 28 22.9138 27.7757 23.3551 27.3443C23.7794 26.9129 24 26.3953 24 25.7914V8.20863C24 7.6047 23.7794 7.10432 23.3551 6.65569ZM16.1593 8.20863H18.8577C19.0444 8.20863 19.1292 8.29491 19.1292 8.48471C19.1292 8.67451 19.0444 8.76079 18.8577 8.76079H16.1593C15.9726 8.76079 15.8877 8.67451 15.8877 8.48471C15.8877 8.29491 15.9726 8.20863 16.1593 8.20863ZM18.4674 26.7576C18.1958 27.0337 17.8903 27.1545 17.517 27.1545C17.1436 27.1545 16.8212 27.0165 16.5666 26.7576C16.295 26.4816 16.1762 26.171 16.1762 25.7914C16.1762 25.4118 16.312 25.0839 16.5666 24.8251C16.8381 24.549 17.1436 24.4282 17.517 24.4282C17.8903 24.4282 18.2128 24.5663 18.4674 24.8251C18.7389 25.1012 18.8577 25.4118 18.8577 25.7914C18.8577 26.171 18.7219 26.4988 18.4674 26.7576ZM22.3708 23.0479C22.3708 23.2031 22.3198 23.3239 22.218 23.4275C22.1162 23.531 21.9804 23.5828 21.8447 23.5828H13.1893C13.0366 23.5828 12.9178 23.531 12.8159 23.4275C12.7141 23.3239 12.6632 23.1859 12.6632 23.0479V10.9522C12.6632 10.7969 12.7141 10.6761 12.8159 10.5726C12.9178 10.469 13.0535 10.4173 13.1893 10.4173H21.8447C21.9974 10.4173 22.1162 10.469 22.218 10.5726C22.3198 10.6761 22.3708 10.8141 22.3708 10.9522V23.0479Z" fill="#55575F"/>
</svg>
