<svg width="35" height="36" viewBox="0 0 35 36" fill="none" xmlns="http://www.w3.org/2000/svg">
<path d="M17.3105 35.242C26.8708 35.242 34.6209 27.4918 34.6209 17.9315C34.6209 8.37125 26.8708 0.621094 17.3105 0.621094C7.75015 0.621094 0 8.37125 0 17.9315C0 27.4918 7.75015 35.242 17.3105 35.242Z" fill="#9EA9A3"/>
<path fill-rule="evenodd" clip-rule="evenodd" d="M17.3103 28.5919C23.1919 28.5919 27.9706 23.8131 27.9706 17.9315C27.9706 12.05 23.1919 7.27124 17.3103 7.27124C11.4288 7.27124 6.65002 12.05 6.65002 17.9315C6.65002 23.8131 11.4288 28.5919 17.3103 28.5919ZM9.05611 22.1756L13.3837 22.1422C13.8683 23.8799 14.6703 25.5675 15.7731 27.0713C12.8323 26.5868 10.3761 24.7154 9.05611 22.1756ZM14.4865 15.0075H19.8835C20.2845 16.8956 20.2845 18.8506 19.9169 20.7387L14.4865 20.7721C14.0855 18.8672 14.0855 16.8956 14.4865 15.0075ZM17.1934 26.687C16.1073 25.3002 15.322 23.763 14.8374 22.1422L19.566 22.1088C19.0648 23.7295 18.2794 25.2668 17.1934 26.687ZM18.5635 27.1382C19.6997 25.5842 20.5017 23.8799 20.9863 22.0921L25.6147 22.0587C24.2779 24.7655 21.6546 26.7037 18.5635 27.1382ZM26.6005 17.9315C26.6005 18.9007 26.4501 19.8197 26.1828 20.6885L21.3205 20.7219C21.6714 18.8338 21.6546 16.8956 21.2871 15.0075H26.1159C26.4334 15.9265 26.6005 16.9123 26.6005 17.9315ZM25.5311 13.6374H20.9529C20.4516 11.9163 19.6663 10.2454 18.5635 8.74163C21.6045 9.15936 24.1777 11.0308 25.5311 13.6374ZM19.5326 13.6374H14.8541C15.3554 12.05 16.124 10.5629 17.1934 9.17606C18.2627 10.5462 19.0313 12.05 19.5326 13.6374ZM15.7898 8.79176C14.7037 10.2956 13.9184 11.9163 13.4338 13.6374H9.10624C10.4262 11.1143 12.8657 9.27632 15.7898 8.79176ZM13.0997 15.0242C12.7321 16.929 12.7321 18.884 13.083 20.7888L8.488 20.8222C8.17053 19.9032 8.02016 18.9508 8.02016 17.9482C8.02016 16.929 8.18725 15.9432 8.50472 15.0242H13.0997Z" fill="#55575F"/>
</svg>
