<svg width="193" height="118" viewBox="0 0 193 118" fill="none" xmlns="http://www.w3.org/2000/svg">
<path d="M4.97417 74.4959V92.613H5.06282L6.25454 90.9297C9.28915 93.3806 11.9313 94.6061 14.174 94.6061C17.4157 94.6061 20.0804 93.4248 22.1749 91.0698C24.2104 88.796 25.2243 86.0275 25.2243 82.7571C25.2243 79.4571 24.092 76.6884 21.8197 74.4443C19.5475 72.2074 16.7646 71.0853 13.4635 71.0853C10.1328 71.0853 7.30551 72.2221 4.97401 74.4961L4.97417 74.4959ZM0.000328032 100.896H2.66479V73.9644C2.66479 72.99 2.46505 72.3328 2.07278 71.9933C1.68034 71.6537 0.991983 71.4841 0.000328032 71.4841V70.7309H4.97417V72.5028C8.31208 70.9081 11.3244 70.1108 14.0185 70.1108C17.8896 70.1108 21.1092 71.2771 23.6775 73.6101C26.2458 75.943 27.5337 79.029 27.5337 82.8679C27.5337 86.5296 26.2902 89.5418 23.8033 91.9041C21.3165 94.2666 18.2373 95.448 14.5663 95.448C13.5301 95.448 12.5532 95.3149 11.6352 95.0492V95.2706C11.6352 95.8834 13.3079 96.9243 16.6533 98.3936C19.6435 99.6781 21.7012 100.453 22.8261 100.697C23.9511 100.948 24.9282 101.073 25.7572 101.073C26.4973 101.073 27.6076 100.867 29.0877 100.453L29.2211 101.14C27.6518 101.745 26.2233 102.048 24.9207 102.048C19.6583 102.048 13.0118 98.9472 4.97384 92.7458V96.3336C4.97384 98.1351 5.2329 99.3458 5.75085 99.9659C6.26896 100.586 7.41628 100.896 9.19264 100.896V101.738H0V100.896H0.000328032ZM43.6984 71.4839V70.7308H51.5143V71.4839H48.8053V98.0612C48.8053 99.1242 48.9903 99.8624 49.3604 100.276C49.7306 100.689 50.4484 100.896 51.5143 100.896V101.738H43.6984V100.896H46.4962V81.0073H36.2379V98.0612C36.2379 99.9512 37.1704 100.896 39.0355 100.896V101.738H31.2198V100.896H33.9286V73.9642C33.9286 72.9602 33.7289 72.2958 33.3291 71.9711C32.9294 71.6462 32.2263 71.4839 31.2198 71.4839V70.7308H39.0355V71.4839H36.2379V80.1658H46.4962V74.5845C46.4962 73.3441 46.3333 72.5173 46.0076 72.104C45.682 71.6906 44.9122 71.4839 43.6984 71.4839ZM58.4421 71.4839V80.1215H62.6609V76.1792H63.327V85.9685H62.6609C62.6609 83.7537 62.498 82.4101 62.1798 81.9376C61.7358 81.1994 60.4923 80.8301 58.4421 80.8301V100.896H62.4168C63.5121 100.896 64.4373 100.822 65.2071 100.675C66.5022 100.438 67.309 99.3899 67.6346 97.5295C67.7234 96.9684 67.768 95.4919 67.768 93.1H68.5229V103.908H67.768V101.738H53.424V100.896H56.1329V73.7428C56.1329 72.7978 55.8961 72.1628 55.4224 71.8381C55.0375 71.6017 54.3715 71.4837 53.4242 71.4837V70.7306H67.7681V68.4272H68.523V79.9884H67.7681C67.7681 77.3602 67.7236 75.7508 67.6348 75.1601C67.3092 73.1225 66.4579 71.9708 65.074 71.7052C64.3339 71.5576 63.3347 71.4837 62.0691 71.4837H58.4424L58.4421 71.4839ZM70.1214 71.4839V70.7308H78.3816V71.4839H75.3617V98.0612C75.3617 99.1242 75.5913 99.8624 76.0501 100.276C76.509 100.689 77.2862 100.896 78.3816 100.896V101.738H70.1214V100.896H73.0525V73.9644C73.0525 72.9604 72.786 72.2664 72.2532 71.8825C71.8683 71.6168 71.1578 71.4839 70.1216 71.4839H70.1214ZM80.2467 71.4839V70.7308H84.4359L96.056 96.688H96.1894V74.8501C96.1894 73.4327 95.982 72.5171 95.5676 72.1038C95.1532 71.6905 94.2205 71.4837 92.7699 71.4837V70.7306H100.142V71.4837H97.1663V104.395L84.1547 75.3817H83.9327V97.3081C83.9327 98.7846 84.1768 99.7518 84.6653 100.209C85.1539 100.667 86.1383 100.896 87.6184 100.896V101.738H80.2467V100.896H82.9556V74.5843C82.9556 73.344 82.8224 72.5467 82.5486 72.1924C82.2156 71.7199 81.4534 71.4837 80.2469 71.4837L80.2467 71.4839ZM112.754 90.398V92.2586H103.472V90.398H112.754ZM115.862 100.896H118.616V74.0974C118.616 73.0638 118.416 72.3697 118.016 72.0154C117.616 71.6611 116.898 71.4839 115.862 71.4839V70.7308H120.162L127.512 88.1388H127.645L134.07 70.7308H139.132V71.4839H136.379V98.0612C136.379 99.1832 136.549 99.9363 136.89 100.32C137.23 100.704 137.978 100.896 139.132 100.896V101.738H131.405V100.896H134.07V74.0085L127.031 92.3469L119.592 74.983V98.061C119.592 99.183 119.918 99.951 120.57 100.364C121.073 100.719 121.902 100.896 123.056 100.896V101.738H115.862V100.896V100.896ZM147.836 101.738H139.798V100.896H141.53L150.723 68.6046L158.939 97.6626C159.294 98.9029 159.605 99.6854 159.871 100.01C160.315 100.601 161.055 100.896 162.092 100.896V101.738H154.587V100.896H157.74L152.677 82.8679H147.703L143.973 96.1566C143.707 97.1016 143.573 97.8989 143.573 98.5486C143.573 99.7299 144.032 100.453 144.95 100.719C145.305 100.837 146.267 100.896 147.837 100.896V101.738L147.836 101.738ZM147.836 82.0262H152.499L150.641 75.4262C150.434 74.6881 150.323 73.9644 150.323 73.2557H150.234L147.836 82.0262ZM162.98 71.4841V70.7309H171.24V71.4841H168.22V98.0614C168.22 99.1244 168.45 99.8626 168.908 100.276C169.367 100.689 170.145 100.896 171.24 100.896V101.738H162.98V100.896H165.911V73.9646C165.911 72.9606 165.644 72.2666 165.112 71.8827C164.727 71.6169 164.016 71.4841 162.98 71.4841H162.98ZM173.105 71.4841V70.7309H177.294L188.914 96.6881H189.048V74.8502C189.048 73.4329 188.84 72.5173 188.426 72.104C188.012 71.6906 187.079 71.4839 185.628 71.4839V70.7308H193V71.4839H190.025V104.395L177.013 75.3819H176.791V97.3082C176.791 98.7847 177.035 99.752 177.524 100.21C178.012 100.667 178.997 100.896 180.477 100.896V101.738H173.105V100.896H175.814V74.5845C175.814 73.3441 175.681 72.5469 175.407 72.1926C175.074 71.7201 174.312 71.4839 173.105 71.4839L173.105 71.4841Z" fill="white"/>
<path d="M2.63184 117.369V109.978H2.79689L7.88107 115.631V109.978H8.64765V117.369H8.47391L3.41989 111.766V117.369H2.632H2.63184ZM17.9281 111.903V117.369H17.2042V116.429C16.899 116.788 16.5582 117.057 16.1784 117.235C15.8005 117.414 15.3853 117.503 14.9362 117.503C14.1377 117.503 13.4545 117.223 12.8884 116.664C12.3222 116.103 12.0403 115.424 12.0403 114.621C12.0403 113.837 12.326 113.164 12.8974 112.607C13.4671 112.049 14.1539 111.769 14.9577 111.769C15.4207 111.769 15.8397 111.864 16.2157 112.053C16.5902 112.241 16.9203 112.526 17.2042 112.908V111.903H17.9281ZM15.0144 112.449C14.6095 112.449 14.2352 112.545 13.8946 112.737C13.552 112.927 13.2806 113.197 13.0782 113.543C12.8759 113.89 12.7746 114.257 12.7746 114.645C12.7746 115.027 12.8758 115.394 13.0798 115.745C13.284 116.094 13.5571 116.367 13.9015 116.561C14.2458 116.757 14.615 116.855 15.0088 116.855C15.4045 116.855 15.7826 116.759 16.1375 116.565C16.4941 116.371 16.7675 116.11 16.9591 115.779C17.1509 115.45 17.2466 115.077 17.2466 114.664C17.2466 114.034 17.0321 113.507 16.6007 113.084C16.1712 112.66 15.6423 112.449 15.0142 112.449L15.0144 112.449ZM26.9798 113.039L26.403 113.386C25.9026 112.747 25.2193 112.428 24.3534 112.428C23.6614 112.428 23.0862 112.643 22.6284 113.07C22.1723 113.497 21.9435 114.015 21.9435 114.626C21.9435 115.024 22.0482 115.398 22.2595 115.748C22.4688 116.098 22.7581 116.371 23.1254 116.565C23.4909 116.759 23.9026 116.855 24.3586 116.855C25.1927 116.855 25.8741 116.536 26.403 115.897L26.9798 116.264C26.7082 116.657 26.3443 116.961 25.8884 117.179C25.4306 117.395 24.9105 117.503 24.3267 117.503C23.4288 117.503 22.6852 117.229 22.0941 116.681C21.5032 116.132 21.2087 115.467 21.2087 114.681C21.2087 114.154 21.3472 113.663 21.6239 113.21C21.8989 112.757 22.2787 112.404 22.7615 112.15C23.2459 111.896 23.7853 111.769 24.3834 111.769C24.7597 111.769 25.1218 111.824 25.4712 111.934C25.819 112.044 26.1154 112.188 26.3586 112.364C26.6035 112.541 26.8093 112.766 26.9798 113.039V113.039ZM30.2905 109.793H31.0145V112.89C31.309 112.515 31.6357 112.234 31.9888 112.049C32.3436 111.862 32.727 111.769 33.1404 111.769C33.5645 111.769 33.9407 111.872 34.2692 112.08C34.5975 112.287 34.8404 112.567 34.9966 112.915C35.1528 113.265 35.2308 113.813 35.2308 114.559V117.369H34.5068V114.765C34.5068 114.137 34.4801 113.717 34.4288 113.506C34.3382 113.145 34.1731 112.874 33.9355 112.691C33.6975 112.509 33.3854 112.418 32.9984 112.418C32.5564 112.418 32.1607 112.559 31.8112 112.84C31.4616 113.12 31.2309 113.468 31.1192 113.883C31.0499 114.151 31.0143 114.645 31.0143 115.367V117.37H30.2904V109.793L30.2905 109.793ZM38.5932 109.793H39.3173V117.369H38.5932V109.793ZM48.3795 111.903V117.369H47.6555V116.429C47.3503 116.788 47.0095 117.057 46.6298 117.235C46.2518 117.414 45.8366 117.503 45.3875 117.503C44.589 117.503 43.9058 117.223 43.3397 116.664C42.7736 116.103 42.4916 115.424 42.4916 114.621C42.4916 113.837 42.7773 113.164 43.3487 112.607C43.9184 112.049 44.6052 111.769 45.409 111.769C45.872 111.769 46.291 111.864 46.667 112.053C47.0415 112.241 47.3716 112.526 47.6555 112.908V111.903H48.3795ZM45.4657 112.449C45.0609 112.449 44.6865 112.545 44.3459 112.737C44.0033 112.927 43.7319 113.197 43.5295 113.543C43.3272 113.89 43.2259 114.257 43.2259 114.645C43.2259 115.027 43.3271 115.394 43.5311 115.745C43.7354 116.094 44.0084 116.367 44.3528 116.561C44.6972 116.757 45.0663 116.855 45.4601 116.855C45.8558 116.855 46.2339 116.759 46.5888 116.565C46.9454 116.371 47.2188 116.11 47.4104 115.779C47.6022 115.45 47.6979 115.077 47.6979 114.664C47.6979 114.034 47.4834 113.507 47.052 113.084C46.6226 112.66 46.0936 112.449 45.4655 112.449L45.4657 112.449ZM54.7904 112.497L54.322 112.963C53.9332 112.6 53.5518 112.418 53.1809 112.418C52.9449 112.418 52.7426 112.493 52.5741 112.644C52.4055 112.793 52.3202 112.97 52.3202 113.171C52.3202 113.348 52.3896 113.518 52.5279 113.677C52.6664 113.842 52.959 114.034 53.4028 114.255C53.9424 114.525 54.3097 114.787 54.5049 115.038C54.6949 115.292 54.7906 115.578 54.7906 115.896C54.7906 116.345 54.6272 116.724 54.3007 117.036C53.9742 117.347 53.5661 117.503 53.0763 117.503C52.7498 117.503 52.4394 117.435 52.1411 117.297C51.8446 117.16 51.5999 116.971 51.4045 116.729L51.8624 116.227C52.2332 116.632 52.629 116.834 53.046 116.834C53.3373 116.834 53.5856 116.743 53.7914 116.563C53.9953 116.383 54.0984 116.17 54.0984 115.926C54.0984 115.726 54.0309 115.547 53.8962 115.389C53.7595 115.235 53.4541 115.041 52.9786 114.808C52.4676 114.554 52.1198 114.304 51.937 114.056C51.7526 113.809 51.6602 113.528 51.6602 113.21C51.6602 112.797 51.8075 112.454 52.1003 112.179C52.3948 111.906 52.7659 111.769 53.2147 111.769C53.7364 111.769 54.2617 112.011 54.7906 112.497H54.7904ZM60.8395 112.497L60.3711 112.963C59.9823 112.6 59.6009 112.418 59.23 112.418C58.9938 112.418 58.7917 112.493 58.6232 112.644C58.4546 112.793 58.3692 112.97 58.3692 113.171C58.3692 113.348 58.4385 113.518 58.577 113.677C58.7153 113.842 59.0081 114.034 59.4519 114.255C59.9915 114.525 60.3588 114.787 60.554 115.038C60.7438 115.292 60.8397 115.578 60.8397 115.896C60.8397 116.345 60.6763 116.724 60.3498 117.036C60.0233 117.347 59.6152 117.503 59.1254 117.503C58.7989 117.503 58.4883 117.435 58.1902 117.297C57.8937 117.16 57.649 116.971 57.4536 116.729L57.9115 116.227C58.2823 116.632 58.6781 116.834 59.0951 116.834C59.3862 116.834 59.6347 116.743 59.8404 116.563C60.0444 116.383 60.1475 116.17 60.1475 115.926C60.1475 115.726 60.08 115.547 59.9453 115.389C59.8086 115.235 59.5032 115.041 59.0277 114.808C58.5167 114.554 58.1689 114.304 57.9861 114.056C57.8016 113.809 57.7091 113.528 57.7091 113.21C57.7091 112.797 57.8566 112.454 58.1494 112.179C58.4439 111.906 58.815 111.769 59.2638 111.769C59.7855 111.769 60.3106 112.011 60.8397 112.497H60.8395ZM80.2569 114.641L80.7842 115.178C80.4469 115.456 80.1294 115.7 79.8329 115.911C80.0335 116.096 80.3013 116.348 80.6385 116.669C80.8994 116.925 81.1284 117.158 81.3234 117.369H80.2569L79.2419 116.366C78.6048 116.856 78.0883 117.179 77.6892 117.328C77.2917 117.479 76.871 117.555 76.4292 117.555C75.8402 117.555 75.3679 117.391 75.0113 117.065C74.6545 116.74 74.4773 116.333 74.4773 115.846C74.4773 115.478 74.5961 115.11 74.8357 114.741C75.0754 114.372 75.5632 113.905 76.2998 113.341C75.888 112.85 75.6236 112.488 75.5048 112.255C75.3875 112.021 75.3291 111.798 75.3291 111.586C75.3291 111.217 75.4763 110.911 75.7692 110.669C76.1081 110.386 76.5304 110.246 77.0344 110.246C77.3538 110.246 77.6431 110.307 77.9057 110.431C78.1683 110.556 78.3689 110.723 78.5071 110.932C78.6456 111.141 78.7149 111.364 78.7149 111.599C78.7149 111.846 78.6244 112.111 78.4451 112.39C78.2641 112.672 77.9073 113.029 77.3768 113.464L78.5374 114.641L79.2951 115.383C79.6998 115.088 80.021 114.84 80.2569 114.641ZM76.9047 112.912C77.274 112.634 77.5543 112.361 77.7405 112.092C77.8718 111.901 77.9375 111.731 77.9375 111.584C77.9375 111.414 77.8523 111.266 77.6802 111.141C77.5097 111.018 77.2827 110.956 76.9986 110.956C76.729 110.956 76.5089 111.019 76.3384 111.146C76.1699 111.275 76.0847 111.426 76.0847 111.599C76.0847 111.733 76.1185 111.86 76.1876 111.977C76.3581 112.261 76.5958 112.574 76.9046 112.912H76.9047ZM76.8036 113.898C76.1576 114.37 75.7335 114.744 75.533 115.024C75.3324 115.302 75.2332 115.561 75.2332 115.798C75.2332 116.077 75.3557 116.326 75.6023 116.542C75.8492 116.757 76.1508 116.865 76.5074 116.865C76.779 116.865 77.0434 116.81 77.3042 116.702C77.7142 116.53 78.1809 116.242 78.7078 115.836L77.5012 114.643C77.2933 114.43 77.0611 114.183 76.8038 113.899L76.8036 113.898ZM89.2937 109.978H90.0604V113.077H93.9573V109.978H94.724V117.369H93.9573V113.797H90.0604V117.369H89.2937V109.978ZM104.01 111.903V117.369H103.286V116.429C102.98 116.788 102.64 117.057 102.26 117.236C101.882 117.414 101.467 117.503 101.018 117.503C100.219 117.503 99.536 117.224 98.9698 116.664C98.4039 116.103 98.1218 115.424 98.1218 114.621C98.1218 113.837 98.4076 113.164 98.9788 112.607C99.5486 112.049 100.236 111.77 101.039 111.77C101.502 111.77 101.921 111.864 102.297 112.053C102.672 112.241 103.002 112.526 103.286 112.909V111.903H104.01ZM101.096 112.449C100.691 112.449 100.317 112.545 99.976 112.737C99.6336 112.927 99.3621 113.197 99.1596 113.543C98.9575 113.89 98.8561 114.257 98.8561 114.645C98.8561 115.028 98.9574 115.395 99.1614 115.745C99.3655 116.095 99.6387 116.367 99.9831 116.561C100.327 116.757 100.697 116.855 101.09 116.855C101.486 116.855 101.864 116.759 102.219 116.565C102.576 116.371 102.849 116.11 103.041 115.779C103.232 115.45 103.328 115.077 103.328 114.664C103.328 114.034 103.114 113.507 102.682 113.084C102.253 112.66 101.724 112.449 101.096 112.449L101.096 112.449ZM107.567 111.903H108.291V112.883C108.584 112.509 108.907 112.229 109.26 112.046C109.615 111.862 110 111.769 110.417 111.769C110.841 111.769 111.217 111.872 111.546 112.08C111.874 112.288 112.117 112.567 112.273 112.919C112.43 113.269 112.508 113.816 112.508 114.559V117.37H111.784V114.765C111.784 114.137 111.755 113.717 111.7 113.506C111.611 113.146 111.448 112.874 111.209 112.691C110.969 112.509 110.657 112.418 110.272 112.418C109.83 112.418 109.434 112.559 109.086 112.84C108.737 113.12 108.506 113.468 108.396 113.883C108.327 114.154 108.291 114.649 108.291 115.368V117.37H107.567V111.904L107.567 111.903ZM121.62 109.793V117.369H120.896V116.429C120.59 116.788 120.25 117.057 119.87 117.236C119.492 117.414 119.077 117.503 118.628 117.503C117.829 117.503 117.146 117.224 116.58 116.664C116.014 116.103 115.731 115.424 115.731 114.621C115.731 113.837 116.017 113.164 116.589 112.607C117.158 112.049 117.845 111.77 118.649 111.77C119.112 111.77 119.531 111.866 119.907 112.056C120.282 112.246 120.612 112.533 120.896 112.916V109.793H121.62V109.793ZM118.706 112.449C118.301 112.449 117.927 112.545 117.586 112.737C117.243 112.927 116.972 113.197 116.77 113.543C116.567 113.89 116.466 114.257 116.466 114.645C116.466 115.028 116.567 115.395 116.771 115.745C116.975 116.095 117.249 116.367 117.593 116.561C117.937 116.757 118.306 116.855 118.7 116.855C119.096 116.855 119.474 116.759 119.829 116.565C120.186 116.371 120.459 116.11 120.65 115.779C120.842 115.45 120.938 115.077 120.938 114.664C120.938 114.034 120.723 113.507 120.292 113.084C119.863 112.66 119.334 112.449 118.705 112.449L118.706 112.449ZM129.96 115.558L130.574 115.87C130.371 116.249 130.139 116.556 129.874 116.789C129.61 117.021 129.314 117.2 128.984 117.321C128.652 117.443 128.279 117.503 127.862 117.503C126.936 117.503 126.213 117.211 125.692 116.628C125.17 116.045 124.909 115.386 124.909 114.652C124.909 113.96 125.131 113.343 125.573 112.802C126.132 112.114 126.883 111.769 127.821 111.769C128.788 111.769 129.562 112.123 130.139 112.828C130.549 113.325 130.758 113.946 130.765 114.693H125.655C125.669 115.326 125.88 115.844 126.286 116.247C126.694 116.652 127.198 116.855 127.797 116.855C128.086 116.855 128.368 116.806 128.641 116.71C128.915 116.614 129.147 116.487 129.339 116.328C129.53 116.168 129.738 115.913 129.96 115.558L129.96 115.558ZM129.967 114.086C129.869 113.71 129.727 113.411 129.541 113.187C129.353 112.962 129.106 112.782 128.799 112.644C128.492 112.507 128.169 112.438 127.832 112.438C127.273 112.438 126.794 112.61 126.393 112.955C126.098 113.207 125.878 113.583 125.727 114.086H129.967V114.086ZM133.914 109.793H134.638V117.369H133.914V109.793ZM140.922 112.497L140.453 112.963C140.064 112.6 139.683 112.418 139.312 112.418C139.076 112.418 138.874 112.493 138.705 112.644C138.537 112.794 138.452 112.97 138.452 113.171C138.452 113.348 138.521 113.518 138.659 113.677C138.798 113.842 139.09 114.034 139.534 114.256C140.074 114.525 140.441 114.788 140.636 115.038C140.826 115.292 140.922 115.578 140.922 115.896C140.922 116.345 140.759 116.725 140.432 117.037C140.105 117.347 139.697 117.503 139.208 117.503C138.881 117.503 138.571 117.435 138.272 117.297C137.976 117.16 137.731 116.972 137.536 116.73L137.994 116.227C138.364 116.632 138.76 116.834 139.177 116.834C139.469 116.834 139.717 116.743 139.923 116.563C140.127 116.383 140.23 116.17 140.23 115.927C140.23 115.726 140.162 115.547 140.027 115.39C139.891 115.235 139.585 115.041 139.11 114.808C138.599 114.554 138.251 114.304 138.068 114.057C137.884 113.809 137.791 113.528 137.791 113.211C137.791 112.797 137.939 112.454 138.232 112.179C138.526 111.907 138.897 111.769 139.346 111.769C139.868 111.769 140.393 112.011 140.922 112.497H140.922ZM146.971 112.497L146.502 112.963C146.114 112.6 145.732 112.418 145.361 112.418C145.125 112.418 144.923 112.493 144.754 112.644C144.586 112.794 144.501 112.97 144.501 113.171C144.501 113.348 144.57 113.518 144.708 113.677C144.847 113.842 145.139 114.034 145.583 114.256C146.123 114.525 146.49 114.788 146.685 115.038C146.875 115.292 146.971 115.578 146.971 115.896C146.971 116.345 146.808 116.725 146.481 117.037C146.155 117.347 145.746 117.503 145.257 117.503C144.93 117.503 144.62 117.435 144.321 117.297C144.025 117.16 143.78 116.972 143.585 116.73L144.043 116.227C144.414 116.632 144.809 116.834 145.226 116.834C145.518 116.834 145.766 116.743 145.972 116.563C146.176 116.383 146.279 116.17 146.279 115.927C146.279 115.726 146.211 115.547 146.077 115.39C145.94 115.235 145.634 115.041 145.159 114.808C144.648 114.554 144.3 114.304 144.117 114.057C143.933 113.809 143.841 113.528 143.841 113.211C143.841 112.797 143.988 112.454 144.281 112.179C144.575 111.907 144.946 111.769 145.395 111.769C145.917 111.769 146.442 112.011 146.971 112.497H146.971ZM154.94 115.558L155.554 115.87C155.352 116.249 155.119 116.556 154.855 116.789C154.59 117.021 154.294 117.2 153.964 117.321C153.632 117.443 153.259 117.503 152.842 117.503C151.916 117.503 151.194 117.211 150.672 116.628C150.15 116.045 149.889 115.386 149.889 114.652C149.889 113.96 150.111 113.343 150.553 112.802C151.112 112.114 151.863 111.769 152.802 111.769C153.769 111.769 154.542 112.123 155.119 112.828C155.529 113.325 155.739 113.946 155.746 114.693H150.635C150.649 115.326 150.86 115.844 151.267 116.247C151.675 116.652 152.179 116.855 152.777 116.855C153.066 116.855 153.348 116.806 153.621 116.71C153.895 116.614 154.127 116.487 154.319 116.328C154.511 116.168 154.718 115.913 154.94 115.558L154.94 115.558ZM154.947 114.086C154.849 113.71 154.707 113.411 154.521 113.187C154.333 112.962 154.086 112.782 153.779 112.644C153.472 112.507 153.149 112.438 152.812 112.438C152.253 112.438 151.774 112.61 151.373 112.955C151.078 113.207 150.858 113.583 150.708 114.086H154.947V114.086ZM158.724 111.903H159.47V112.703C159.691 112.387 159.926 112.154 160.172 111.999C160.419 111.847 160.676 111.769 160.942 111.769C161.145 111.769 161.36 111.831 161.588 111.955L161.209 112.545C161.056 112.482 160.928 112.449 160.824 112.449C160.581 112.449 160.346 112.545 160.121 112.737C159.895 112.929 159.723 113.229 159.605 113.634C159.514 113.945 159.47 114.575 159.47 115.522V117.369H158.724V111.903ZM163.588 111.903H164.349L166.253 115.894L168.143 111.903H168.922L166.335 117.369H166.196L163.588 111.903H163.588ZM172.19 109.659C172.355 109.659 172.495 109.716 172.613 109.831C172.73 109.944 172.788 110.083 172.788 110.242C172.788 110.4 172.73 110.537 172.613 110.651C172.495 110.766 172.355 110.822 172.19 110.822C172.027 110.822 171.889 110.766 171.771 110.651C171.654 110.537 171.596 110.4 171.596 110.242C171.596 110.083 171.654 109.944 171.771 109.831C171.889 109.716 172.027 109.659 172.19 109.659ZM171.83 111.903H172.554V117.369H171.83V111.903ZM181.478 113.039L180.901 113.386C180.401 112.747 179.718 112.428 178.852 112.428C178.16 112.428 177.585 112.643 177.127 113.07C176.671 113.497 176.442 114.015 176.442 114.626C176.442 115.024 176.547 115.398 176.758 115.748C176.967 116.098 177.256 116.371 177.624 116.565C177.989 116.759 178.401 116.855 178.857 116.855C179.691 116.855 180.373 116.536 180.901 115.897L181.478 116.265C181.207 116.657 180.843 116.961 180.387 117.179C179.929 117.395 179.409 117.503 178.825 117.503C177.927 117.503 177.183 117.229 176.592 116.681C176.002 116.132 175.707 115.467 175.707 114.681C175.707 114.154 175.846 113.664 176.122 113.21C176.397 112.758 176.777 112.404 177.26 112.15C177.744 111.896 178.284 111.769 178.882 111.769C179.258 111.769 179.62 111.824 179.97 111.934C180.317 112.044 180.614 112.188 180.857 112.365C181.102 112.541 181.308 112.766 181.478 113.039V113.039ZM189.562 115.558L190.176 115.87C189.974 116.249 189.742 116.556 189.477 116.789C189.213 117.021 188.916 117.2 188.586 117.321C188.255 117.443 187.882 117.503 187.465 117.503C186.539 117.503 185.816 117.211 185.295 116.628C184.773 116.045 184.512 115.386 184.512 114.652C184.512 113.96 184.734 113.343 185.176 112.802C185.735 112.114 186.485 111.769 187.424 111.769C188.391 111.769 189.165 112.123 189.742 112.828C190.152 113.325 190.361 113.946 190.368 114.693H185.257C185.272 115.326 185.483 115.844 185.889 116.247C186.297 116.652 186.801 116.855 187.399 116.855C187.689 116.855 187.971 116.806 188.244 116.71C188.517 116.614 188.75 116.487 188.942 116.328C189.133 116.168 189.341 115.913 189.563 115.558L189.562 115.558ZM189.569 114.086C189.472 113.71 189.33 113.411 189.144 113.187C188.955 112.962 188.709 112.782 188.402 112.644C188.095 112.507 187.772 112.438 187.435 112.438C186.876 112.438 186.397 112.61 185.996 112.955C185.701 113.207 185.481 113.583 185.33 114.086H189.569V114.086ZM63.5661 114.281H66.4199V114.899H63.5661V114.281Z" fill="#9EA9A3"/>
<path d="M27.6341 55.2682C42.896 55.2682 55.2682 42.896 55.2682 27.6341C55.2682 12.3722 42.896 0 27.6341 0C12.3722 0 0 12.3722 0 27.6341C0 42.896 12.3722 55.2682 27.6341 55.2682Z" fill="#CAB6C2"/>
<path d="M96.4833 55.2681C111.745 55.2681 124.117 42.8959 124.117 27.634C124.117 12.3721 111.745 -0.00012207 96.4833 -0.00012207C81.2214 -0.00012207 68.8492 12.3721 68.8492 27.634C68.8492 42.8959 81.2214 55.2681 96.4833 55.2681Z" fill="#ECE3C4"/>
<path d="M165.333 55.2681C180.595 55.2681 192.967 42.8959 192.967 27.634C192.967 12.3721 180.595 -0.00012207 165.333 -0.00012207C150.071 -0.00012207 137.699 12.3721 137.699 27.634C137.699 42.8959 150.071 55.2681 165.333 55.2681Z" fill="#B2BDB7"/>
<path d="M85.4944 12.8259C85.3684 12.8266 85.2478 12.8769 85.1587 12.9659C85.0696 13.055 85.0194 13.1758 85.0187 13.3017V14.7342C85.0178 14.8607 85.0671 14.9825 85.156 15.0729L85.6356 15.5526C85.7258 15.6412 85.8478 15.6907 85.9743 15.6896V31.9334C85.9113 31.9332 85.8489 31.9455 85.7905 31.9695C85.7324 31.9935 85.6792 32.0286 85.6349 32.0734C85.5901 32.1182 85.555 32.1707 85.5308 32.2292C85.5068 32.2874 85.4944 32.35 85.4947 32.4128C85.4951 32.4758 85.5075 32.5377 85.5319 32.5955C85.5561 32.6533 85.5915 32.7058 85.6363 32.7502C85.6808 32.7945 85.7333 32.8294 85.7916 32.8532C85.8498 32.8769 85.912 32.8892 85.9745 32.8888V39.5788C85.848 39.5779 85.7263 39.6273 85.6358 39.7161L85.1562 40.1958C85.0676 40.286 85.018 40.4079 85.0189 40.5345V41.9661C85.0194 42.0922 85.0694 42.2132 85.1585 42.3025C85.2475 42.3918 85.3686 42.4421 85.4947 42.4428H107.472C107.598 42.4421 107.719 42.3918 107.808 42.3025C107.897 42.2132 107.947 42.0922 107.948 41.9661V40.5345C107.948 40.4717 107.935 40.4093 107.911 40.3511C107.887 40.2931 107.851 40.2403 107.807 40.1958L107.331 39.7161C107.241 39.6275 107.119 39.5779 106.992 39.5788V32.8888C107.055 32.8892 107.117 32.8769 107.175 32.8532C107.233 32.8294 107.286 32.7945 107.33 32.7502C107.375 32.7058 107.41 32.6535 107.435 32.5955C107.459 32.5377 107.472 32.4756 107.472 32.4128C107.472 32.3498 107.46 32.2874 107.436 32.2292C107.412 32.1707 107.376 32.1179 107.332 32.0734C107.287 32.0286 107.234 31.9937 107.176 31.9695C107.118 31.9455 107.055 31.9332 106.992 31.9334V15.6896C107.119 15.6907 107.241 15.6414 107.331 15.5523L107.807 15.0727C107.852 15.0284 107.887 14.9759 107.912 14.9174C107.936 14.8594 107.949 14.7968 107.949 14.734V13.3017C107.948 13.1754 107.898 13.0546 107.809 12.9655C107.719 12.8764 107.598 12.8262 107.472 12.8259H85.4949H85.4944ZM85.9741 13.7788H106.992V14.5364L106.795 14.7342H86.168L85.9739 14.5364V13.7788H85.9741ZM86.9304 15.6896H96.0036V31.9334H86.9304V15.6896ZM96.9587 15.6896H106.037V31.9334H96.9587V15.6896ZM88.3618 16.645C88.2987 16.6455 88.2368 16.6578 88.1791 16.6822C88.1213 16.7064 88.0687 16.7418 88.0244 16.7866C87.9801 16.8311 87.9452 16.8837 87.9214 16.9421C87.8977 17.0002 87.8853 17.0623 87.8856 17.1249V30.5011C87.8862 30.6272 87.9365 30.748 88.0253 30.8371C88.1146 30.9261 88.2353 30.9764 88.3616 30.9769C88.4874 30.9764 88.6084 30.9261 88.6973 30.8371C88.7864 30.748 88.8366 30.6272 88.8373 30.5011V17.1249C88.8375 17.0621 88.8252 17.0002 88.8014 16.9421C88.7777 16.8839 88.7428 16.8311 88.6984 16.7866C88.6544 16.7418 88.6018 16.7067 88.5438 16.6822C88.486 16.658 88.4239 16.6455 88.3613 16.645H88.3618ZM104.605 16.645C104.542 16.6448 104.479 16.6571 104.421 16.6809C104.363 16.7048 104.31 16.7402 104.265 16.7848C104.22 16.8295 104.185 16.8823 104.161 16.9408C104.137 16.999 104.124 17.0618 104.125 17.1246V30.5009C104.125 30.5639 104.137 30.6258 104.162 30.6838C104.186 30.7416 104.222 30.7944 104.266 30.8387C104.311 30.8828 104.364 30.9179 104.422 30.9417C104.48 30.9652 104.543 30.9773 104.605 30.9769C104.731 30.9764 104.852 30.9261 104.941 30.8371C105.03 30.748 105.08 30.6272 105.081 30.5011V17.1249C105.081 17.0621 105.069 17.0002 105.045 16.9421C105.021 16.8839 104.987 16.8311 104.942 16.7866C104.898 16.7418 104.846 16.7067 104.788 16.6822C104.73 16.658 104.667 16.6455 104.605 16.645H104.605ZM94.572 22.8554C94.4454 22.8561 94.3241 22.9068 94.2348 22.9968C94.1458 23.0866 94.0957 23.2085 94.0962 23.3351V24.2905C94.0964 24.4168 94.1467 24.5378 94.2358 24.6271C94.3248 24.7164 94.4459 24.7669 94.572 24.7671C94.635 24.7673 94.6971 24.7552 94.7551 24.7315C94.8134 24.7077 94.8661 24.6726 94.9107 24.6283C94.9552 24.5839 94.9904 24.5314 95.0148 24.4732C95.039 24.4154 95.0516 24.353 95.0516 24.2902V23.3348C95.0521 23.2718 95.0397 23.2094 95.0158 23.1512C94.9918 23.0927 94.9561 23.04 94.9116 22.9954C94.8671 22.9507 94.8141 22.9157 94.7558 22.8915C94.6976 22.8675 94.635 22.855 94.572 22.8552V22.8554ZM98.3949 22.8554C98.3319 22.8552 98.2693 22.8678 98.2111 22.8917C98.1526 22.9157 98.0996 22.9509 98.0553 22.9957C98.0108 23.0404 97.9753 23.093 97.9511 23.1514C97.9272 23.2097 97.915 23.2722 97.9153 23.3351V24.2905C97.9153 24.3535 97.9278 24.4156 97.9521 24.4734C97.9763 24.5314 98.0117 24.5842 98.0562 24.6285C98.101 24.6728 98.1535 24.708 98.2117 24.7317C98.2698 24.7555 98.3321 24.7676 98.3949 24.7674C98.521 24.7671 98.6421 24.7166 98.7311 24.6273C98.82 24.538 98.8704 24.417 98.8704 24.2907V23.3353C98.8711 23.2088 98.8211 23.087 98.7318 22.997C98.6427 22.907 98.5212 22.8563 98.3947 22.8556L98.3949 22.8554ZM86.9304 32.8886H96.0036V35.7559H86.9304V32.8886ZM96.9587 32.8886H106.037V35.7559H96.9587V32.8886ZM91.2291 33.8442C91.1661 33.8437 91.1035 33.8561 91.0453 33.88C90.9868 33.904 90.9338 33.9394 90.8895 33.9842C90.8447 34.0287 90.8098 34.0815 90.7853 34.1397C90.7613 34.1982 90.7492 34.2608 90.7495 34.3238C90.7497 34.3864 90.762 34.4485 90.7865 34.5063C90.8109 34.5641 90.8461 34.6169 90.8908 34.6609C90.9354 34.7053 90.9881 34.7402 91.0464 34.764C91.1044 34.7877 91.1665 34.7998 91.2293 34.7998H91.7049C91.7679 34.7998 91.8298 34.7877 91.8878 34.764C91.9458 34.7402 91.9988 34.7053 92.0433 34.6609C92.0881 34.6169 92.1231 34.5643 92.1477 34.5063C92.1719 34.4485 92.1845 34.3862 92.1847 34.3238C92.185 34.2608 92.1728 34.1982 92.1489 34.1397C92.1247 34.0815 92.0893 34.0285 92.0447 33.9842C92.0002 33.9394 91.9474 33.9043 91.889 33.88C91.8307 33.8561 91.7681 33.8437 91.7051 33.8442H91.2296H91.2291ZM101.262 33.8442C101.199 33.8437 101.136 33.8558 101.078 33.8798C101.02 33.9038 100.966 33.9392 100.922 33.9837C100.877 34.0285 100.842 34.0813 100.818 34.1395C100.794 34.198 100.781 34.2606 100.781 34.3238C100.782 34.3866 100.794 34.4488 100.819 34.5065C100.843 34.5643 100.879 34.6171 100.923 34.6614C100.968 34.7055 101.021 34.7407 101.079 34.7642C101.137 34.7879 101.199 34.8 101.262 34.7998H101.738C101.801 34.7998 101.863 34.7877 101.921 34.764C101.979 34.7402 102.032 34.7053 102.076 34.6609C102.121 34.6169 102.156 34.5643 102.181 34.5063C102.205 34.4485 102.217 34.3862 102.218 34.3238C102.218 34.2608 102.206 34.1982 102.182 34.1397C102.158 34.0815 102.122 34.0285 102.078 33.9842C102.033 33.9394 101.98 33.9043 101.922 33.88C101.864 33.8561 101.801 33.8437 101.738 33.8442H101.262H101.262ZM86.9304 36.7115H106.037V39.5786H86.9304V36.7115ZM91.2309 37.6667C91.1042 37.6662 90.9827 37.7162 90.8924 37.8053C90.8027 37.8944 90.7518 38.0159 90.7513 38.1424C90.7511 38.2055 90.7634 38.2681 90.7874 38.3263C90.8114 38.3845 90.8468 38.4378 90.8913 38.4821C90.9361 38.5266 90.9888 38.5618 91.0471 38.586C91.1053 38.61 91.1679 38.6223 91.2309 38.6221H91.7067C91.7695 38.6219 91.8314 38.6095 91.8894 38.5849C91.9472 38.5606 91.9997 38.5252 92.044 38.4807C92.0883 38.4362 92.1233 38.3834 92.147 38.3252C92.1706 38.2671 92.1829 38.205 92.1827 38.1422C92.1822 38.0164 92.132 37.8953 92.0429 37.8065C91.9538 37.7174 91.833 37.6669 91.7069 37.6665H91.2312L91.2309 37.6667ZM101.262 37.6667C101.199 37.6662 101.137 37.6786 101.079 37.7023C101.021 37.7258 100.968 37.7608 100.923 37.8051C100.879 37.8494 100.843 37.9019 100.819 37.96C100.794 38.0177 100.782 38.0801 100.781 38.1427C100.781 38.2057 100.794 38.2685 100.818 38.3268C100.842 38.385 100.877 38.4382 100.922 38.4825C100.967 38.5273 101.02 38.5625 101.078 38.5867C101.136 38.6104 101.199 38.6228 101.262 38.6223H101.738C101.801 38.6225 101.863 38.6102 101.922 38.5862C101.98 38.5622 102.033 38.5268 102.077 38.4823C102.122 38.4378 102.157 38.3848 102.182 38.3265C102.206 38.2683 102.218 38.2057 102.217 38.1427C102.217 38.0161 102.166 37.8949 102.076 37.8056C101.987 37.7165 101.865 37.6665 101.738 37.6669H101.262V37.6667ZM86.1682 40.534H106.795L106.992 40.7311V41.4896H85.9743V40.7311L86.1685 40.534H86.1682Z" fill="#585858"/>
<path fill-rule="evenodd" clip-rule="evenodd" d="M182.685 22.008C182.68 22.0212 182.672 22.0331 182.662 22.0432C181.987 22.8524 181.316 23.6612 180.642 24.4715C175.868 30.2091 171.094 35.9477 166.321 41.6858C166.287 41.7525 166.238 41.8071 166.175 41.8479C166.087 41.9327 165.973 41.9873 165.854 41.9802C165.721 41.9873 165.606 41.9295 165.525 41.8411C165.506 41.8301 165.491 41.8178 165.479 41.8011C165.475 41.7963 165.471 41.7913 165.466 41.787C165.437 41.7575 165.413 41.7333 165.397 41.705C164.749 40.9291 164.107 40.1544 163.461 39.3776C158.651 33.5991 153.844 27.8212 149.039 22.0448C149.029 22.0345 149.021 22.0238 149.016 22.0117C148.994 21.9842 148.976 21.9541 148.961 21.9226L148.949 21.8986L148.954 21.9048C148.937 21.8712 148.93 21.8422 148.924 21.8109C148.92 21.7979 148.918 21.7862 148.914 21.7732L148.908 21.7556L148.909 21.7214C148.9 21.5914 148.934 21.4644 149.016 21.3589L149.02 21.3495L149.032 21.3333C151.12 18.7195 153.211 16.1087 155.296 13.4933C155.392 13.3743 155.474 13.2436 155.582 13.1358C155.665 13.0141 155.799 12.9428 155.934 12.9218C155.962 12.9129 155.972 12.9019 156.005 12.8955C156.247 12.8492 156.497 12.8935 156.74 12.8935C158.104 12.8935 159.467 12.8935 160.831 12.8935C164.596 12.8935 168.362 12.8935 172.127 12.8935C173.093 12.8935 174.072 12.7727 175.028 12.8937C175.059 12.8937 175.066 12.9012 175.074 12.9083C175.244 12.8999 175.415 12.972 175.523 13.1054C176.045 13.4677 176.354 14.0585 176.762 14.5279C178.73 16.795 180.696 19.0635 182.663 21.3319L182.691 21.3641V21.371C182.72 21.411 182.745 21.4562 182.762 21.5023C182.764 21.5067 182.765 21.5112 182.766 21.5158L182.767 21.5178C182.767 21.5188 182.767 21.5194 182.767 21.5204C182.772 21.5357 182.773 21.5471 182.775 21.5603C182.784 21.598 182.79 21.6318 182.79 21.6711C182.79 21.6748 182.789 21.675 182.789 21.6784L182.792 21.6894V21.7038C182.792 21.7191 182.789 21.7335 182.789 21.7257C182.786 21.759 182.781 21.7901 182.773 21.8191C182.767 21.8451 182.759 21.8675 182.746 21.9C182.732 21.9317 182.715 21.9621 182.697 21.9888C182.693 21.9952 182.689 22.0014 182.685 22.0078V22.008ZM173.288 21.1746C175.916 21.1746 178.543 21.1746 181.17 21.1746C179.259 18.9717 177.35 16.7669 175.442 14.5633C175.407 14.5247 175.37 14.4859 175.333 14.4475C175.318 14.4973 175.303 14.5469 175.287 14.5953C174.622 16.7888 173.955 18.9817 173.288 21.1746ZM166.717 13.9142C168.149 15.6165 169.582 17.3178 171.015 19.0187C171.465 19.5522 171.945 20.0602 172.389 20.5979C172.4 20.5634 172.41 20.5293 172.421 20.4958C173.086 18.3022 173.753 16.1093 174.419 13.9165C173.23 13.9165 172.04 13.9151 170.851 13.914C169.472 13.9128 168.094 13.9137 166.716 13.914L166.717 13.9142ZM165.614 14.1933C163.61 16.5198 161.607 18.8481 159.603 21.1746C163.459 21.1746 167.315 21.1746 171.172 21.1746C171.279 21.1746 171.386 21.1746 171.493 21.1746C169.534 18.8467 167.575 16.5191 165.615 14.1933H165.614ZM156.716 13.9357C156.754 14.062 156.79 14.189 156.828 14.3153C157.458 16.4227 158.081 18.5324 158.708 20.6408C160.639 18.4004 162.568 16.1585 164.498 13.9167C162.873 13.9167 161.248 13.9167 159.623 13.9167C158.654 13.9167 157.684 13.985 156.716 13.9357ZM150.461 21.1725C151.457 21.1725 152.454 21.1725 153.451 21.1725C154.899 21.1725 156.347 21.1725 157.795 21.1725C157.756 21.0398 157.717 20.9067 157.678 20.7737C157.062 18.6928 156.443 16.6125 155.823 14.5327C155.666 14.7049 155.501 14.8719 155.357 15.0514C153.719 17.0876 152.092 19.1311 150.461 21.1723L150.461 21.1725ZM164.319 38.8162C162.256 33.2784 160.194 27.7404 158.13 22.2026C155.585 22.2026 153.04 22.2026 150.495 22.2026C150.927 22.7227 151.36 23.2418 151.793 23.7614C155.968 28.7796 160.142 33.7989 164.32 38.8159L164.319 38.8162ZM171.878 22.2003C168.092 22.2003 164.307 22.2003 160.522 22.2003C160.088 22.2003 159.654 22.2003 159.221 22.2003C159.447 22.8047 159.671 23.4095 159.897 24.014C161.875 29.3186 163.85 34.6246 165.828 39.9296C165.95 39.5681 166.073 39.2065 166.197 38.8452C168.09 33.2971 169.984 27.7486 171.878 22.2003H171.878ZM181.196 22.198C180.209 22.198 179.222 22.198 178.235 22.198C176.477 22.198 174.719 22.198 172.962 22.198C172.938 22.264 172.913 22.3303 172.891 22.3967C172.159 24.535 171.432 26.6753 170.701 28.8141C169.542 32.2065 168.384 35.6001 167.226 38.9932C167.316 38.8845 167.407 38.776 167.498 38.6675C172.067 33.1802 176.634 27.6908 181.196 22.1978L181.196 22.198Z" fill="#585858"/>
<path fill-rule="evenodd" clip-rule="evenodd" d="M41.5373 41.5306C39.6208 41.5306 37.7043 41.5306 35.788 41.5306C31.894 41.5306 28.0062 41.5306 24.1125 41.5306C21.0304 41.5306 17.942 41.5306 14.8598 41.5306H14.1663C14.1328 41.5306 14.1641 41.5598 14.1641 41.5304C14.1677 40.5307 14.1641 39.5346 14.1641 38.534C14.0115 38.6866 13.8589 38.8391 13.7063 38.9917C15.6226 38.9917 17.5391 38.9917 19.4556 38.9917C23.3496 38.9917 27.2372 38.9917 31.131 38.9917C34.2132 38.9917 37.3016 38.9917 40.3837 38.9917C40.7681 38.9917 41.1525 38.9917 41.5373 38.9917C41.3847 38.8391 41.2319 38.6866 41.0794 38.534C41.0794 39.6874 41.0794 40.8349 41.0794 41.9883C41.0794 42.1619 41.1844 41.6811 41.2954 41.7526C41.5636 41.9257 41.9948 42.4067 41.9948 41.9883C41.9948 40.8349 41.9948 39.6874 41.9948 38.534C41.9948 38.2837 41.7874 38.076 41.5371 38.076C39.6206 38.076 37.7041 38.076 35.7876 38.076C31.8936 38.076 28.006 38.076 24.1122 38.076C21.0302 38.076 17.9418 38.076 14.8595 38.076C14.4751 38.076 14.0907 38.076 13.7061 38.076C13.4558 38.076 13.2482 38.2834 13.2482 38.534C13.2482 39.6874 13.2482 40.8349 13.2482 41.9883C13.2482 42.2386 13.4556 42.4462 13.7061 42.4462C15.6224 42.4462 17.5389 42.4462 19.4554 42.4462C23.3494 42.4462 27.237 42.4462 31.1307 42.4462C34.213 42.4462 37.3014 42.4462 40.3834 42.4462C40.7678 42.4462 41.1522 42.4462 41.5371 42.4462C41.9461 42.4462 42.0725 42.0089 41.9162 41.7387C41.8461 41.6178 41.7198 41.5308 41.5371 41.5308L41.5373 41.5306Z" fill="#585858"/>
<path fill-rule="evenodd" clip-rule="evenodd" d="M40.4325 38.5339C40.4325 35.8483 40.4325 33.1569 40.4325 30.4716C40.4325 27.6456 40.4325 24.8198 40.4325 21.9941C40.4325 21.9879 40.4325 21.9817 40.4325 21.9817C40.4325 21.3897 39.5168 21.3897 39.5168 21.9817C39.5168 24.667 39.5168 27.3587 39.5168 30.044C39.5168 32.87 39.5168 35.6955 39.5168 38.5215C39.5168 38.5275 39.5168 38.5339 39.5168 38.5339C39.5168 39.1197 40.4325 39.1197 40.4325 38.5339Z" fill="#585858"/>
<path fill-rule="evenodd" clip-rule="evenodd" d="M15.5983 36.2817C15.5983 33.4133 15.5983 30.5448 15.5983 27.6761C15.5983 25.7781 15.5983 23.8739 15.5983 21.9757C15.5983 21.3834 14.6827 21.3834 14.6827 21.9757C14.6827 24.8441 14.6827 27.7126 14.6827 30.5813C14.6827 32.4793 14.6827 34.3835 14.6827 36.2817C14.6827 36.874 15.5983 36.874 15.5983 36.2817Z" fill="#585858"/>
<path fill-rule="evenodd" clip-rule="evenodd" d="M19.5595 21.5179H14.1699L14.164 15.6466H22.7331C23.8011 15.6466 24.8693 15.6466 25.9433 15.6466C26.5355 15.6466 26.5355 14.731 25.9433 14.731C22.9343 14.731 19.9254 14.731 16.9165 14.731C15.8485 14.731 14.7805 14.731 13.7063 14.731C13.456 14.731 13.2484 14.9386 13.2484 15.1889C13.2484 17.453 13.2484 19.7176 13.2484 21.9758C13.2484 22.2259 13.4557 22.4335 13.7063 22.4335C15.6593 22.4335 17.6062 22.4335 19.5593 22.4335C20.1513 22.4335 20.1513 21.5181 19.5593 21.5181L19.5595 21.5179Z" fill="#585858"/>
<path fill-rule="evenodd" clip-rule="evenodd" d="M29.483 15.6467C32.5041 15.6467 35.5194 15.6467 38.5404 15.6467C39.5474 15.6467 40.5545 15.6467 41.5613 15.6467C41.4087 15.4939 41.2561 15.3413 41.1035 15.1888C41.1035 17.4529 41.1035 19.7175 41.1035 21.9757C41.2561 21.8229 41.4087 21.6703 41.5613 21.5177C39.6388 21.5177 37.7102 21.5177 35.7875 21.5177C35.1955 21.5177 35.1955 22.4331 35.7875 22.4331C37.7102 22.4331 39.6388 22.4331 41.5613 22.4331C41.8116 22.4331 42.0192 22.2258 42.0192 21.9752C42.0192 19.7111 42.0192 17.4467 42.0192 15.1885C42.0192 14.9384 41.8118 14.7306 41.5613 14.7306C38.5404 14.7306 35.5251 14.7306 32.5041 14.7306C31.497 14.7306 30.49 14.7306 29.483 14.7306C28.891 14.7306 28.891 15.6462 29.483 15.6462V15.6467Z" fill="#585858"/>
<path fill-rule="evenodd" clip-rule="evenodd" d="M36.1053 21.652C34.0485 19.4365 31.9918 17.2208 29.9348 14.9994C29.3001 14.3158 28.6713 13.6384 28.0366 12.9548C27.8719 12.7778 27.5545 12.7778 27.3898 12.9548C25.333 15.1703 23.2763 17.3857 21.2191 19.6074C20.5846 20.291 19.9558 20.9684 19.3211 21.652C18.9182 22.0853 19.5653 22.7321 19.9682 22.2988C22.0249 20.0836 24.0816 17.8679 26.1386 15.6465C26.7731 14.9629 27.4021 14.2854 28.0366 13.6018C27.823 13.6018 27.6033 13.6018 27.3898 13.6018C29.4465 15.8171 31.5033 18.0328 33.5602 20.2542C34.1947 20.9378 34.8237 21.6152 35.4582 22.2988C35.8611 22.7321 36.5079 22.0853 36.1053 21.652Z" fill="#585858"/>
<path fill-rule="evenodd" clip-rule="evenodd" d="M14.402 38.4115C14.0539 37.2884 15.1955 36.2691 16.2635 36.8428C16.7822 37.1238 17.246 36.3303 16.7274 36.0494C15.8788 35.5916 14.9207 35.7015 14.1761 36.2997C13.4866 36.849 13.2669 37.8377 13.517 38.6556C13.5519 38.7664 13.5435 38.9226 13.6056 39.0003C13.6755 39.0873 13.8191 39.0889 13.9203 39.083C14.1864 39.0672 14.5014 38.7379 14.402 38.4115Z" fill="#585858"/>
<path fill-rule="evenodd" clip-rule="evenodd" d="M16.935 36.5682C17.3438 35.5674 18.5584 35.0852 19.541 35.5306C20.5969 36.0066 20.9936 37.3005 20.4322 38.3016C20.1453 38.8141 20.9324 39.278 21.2257 38.7654C22.0313 37.3249 21.5002 35.4758 20.0113 34.7433C18.4732 33.9805 16.6849 34.786 16.0563 36.3302C15.965 36.5621 16.1541 36.8307 16.3738 36.8917C16.6362 36.9588 16.8436 36.8001 16.9352 36.5682H16.935Z" fill="#585858"/>
<path d="M14.1648 41.5237H14.1373V41.5545H14.1648V41.5237Z" fill="#585858"/>
<path d="M41.8677 41.2899H41.0793V42.2446H41.8677V41.2899Z" fill="#585858"/>
<path d="M41.9006 41.5304H40.8804V42.1891H41.9006V41.5304Z" fill="#585858"/>
<path d="M41.9801 41.5624H41.6841V42.0212H41.9801V41.5624Z" fill="#585858"/>
<path fill-rule="evenodd" clip-rule="evenodd" d="M41.8022 41.8658H41.9842L41.986 42.0755C41.981 42.1098 41.9641 42.145 41.9465 42.1751L41.8022 42.1726V41.8658Z" fill="#585858"/>
<path fill-rule="evenodd" clip-rule="evenodd" d="M27.7132 13.9505L27.2166 13.4564L28.1716 13.5254L27.7132 13.9505Z" fill="#585858"/>
<path fill-rule="evenodd" clip-rule="evenodd" d="M41.4361 15.7073L41.1037 15.6715L41.1014 15.1005L41.6051 15.6468L41.4361 15.7073Z" fill="#585858"/>
<path fill-rule="evenodd" clip-rule="evenodd" d="M41.0962 22.1872L40.8898 21.518L41.8214 21.5079L41.0962 22.1872Z" fill="#585858"/>
<path fill-rule="evenodd" clip-rule="evenodd" d="M40.7091 38.3501L40.7945 38.9912L41.8543 38.9898L41.2573 38.3697L40.7091 38.3501Z" fill="#585858"/>
<path d="M16.9631 25.9846H21.2323C21.4299 25.9846 21.6096 26.065 21.7396 26.195C21.8695 26.3249 21.9499 26.5042 21.9499 26.7022V32.6237C21.9499 32.8213 21.8695 33.0008 21.7396 33.1308C21.6096 33.2608 21.4301 33.3414 21.2323 33.3414H16.9631C16.7655 33.3414 16.586 33.2608 16.456 33.1308C16.3261 33.0008 16.2454 32.8215 16.2454 32.6237V26.7022C16.2454 26.5045 16.3261 26.3249 16.456 26.195C16.586 26.065 16.7653 25.9846 16.9631 25.9846ZM21.1099 26.8244H17.0855V32.5011H21.1099V26.8244Z" fill="#585858"/>
<path d="M33.8708 25.9846H38.1398C38.3376 25.9846 38.5171 26.065 38.6471 26.195C38.777 26.3249 38.8574 26.5042 38.8574 26.7022V32.6237C38.8574 32.8213 38.777 33.0008 38.6471 33.1308C38.5171 33.2608 38.3378 33.3414 38.1398 33.3414H33.8708C33.673 33.3414 33.4935 33.2608 33.3635 33.1308C33.2335 33.0008 33.1531 32.8215 33.1531 32.6237V26.7022C33.1531 26.5045 33.2335 26.3249 33.3635 26.195C33.4935 26.065 33.6728 25.9846 33.8708 25.9846ZM38.0174 26.8244H33.993V32.5011H38.0174V26.8244Z" fill="#585858"/>
<path d="M24.7107 25.5284H30.5718C30.885 25.5284 31.1696 25.6563 31.3756 25.8624C31.5814 26.0682 31.7093 26.353 31.7093 26.6661V37.7243C31.7093 38.0377 31.5814 38.322 31.3756 38.528C31.1696 38.7338 30.8848 38.8617 30.5718 38.8617H24.7107C24.3973 38.8617 24.1127 38.7338 23.9069 38.528C23.7009 38.322 23.573 38.0374 23.573 37.7243V26.6661C23.573 26.3527 23.7009 26.0682 23.9069 25.8624C24.1127 25.6563 24.3975 25.5284 24.7107 25.5284ZM30.5718 26.3157H24.7107C24.6145 26.3157 24.5272 26.3552 24.4635 26.419C24.3998 26.4827 24.3601 26.5702 24.3601 26.6663V37.7245C24.3601 37.8205 24.3996 37.9079 24.4635 37.9717C24.527 38.0352 24.6145 38.0749 24.7107 38.0749H30.5718C30.6678 38.0749 30.7553 38.0354 30.819 37.9717C30.8825 37.9082 30.9222 37.8205 30.9222 37.7245V26.6663C30.9222 26.5702 30.8827 26.4829 30.819 26.419C30.7555 26.3555 30.6678 26.3157 30.5718 26.3157Z" fill="#585858"/>
<path d="M27.7131 18.0173C28.452 18.0173 29.1216 18.3175 29.6058 18.8017C30.0903 19.2861 30.3902 19.9555 30.3902 20.6944C30.3902 21.431 30.0905 22.1004 29.6058 22.5853L29.604 22.5872C29.1191 23.0716 28.4497 23.3715 27.7131 23.3715C26.9742 23.3715 26.305 23.0718 25.8203 22.5872C25.3364 22.1032 25.036 21.4333 25.036 20.6944C25.036 19.9567 25.3361 19.2879 25.8203 18.8035L25.8222 18.8017C26.3066 18.3177 26.9754 18.0173 27.7131 18.0173ZM28.9405 19.4668C28.6267 19.1529 28.1925 18.9586 27.7131 18.9586C27.233 18.9586 26.7986 19.1527 26.4847 19.4658C26.1716 19.7797 25.9775 20.2141 25.9775 20.6942C25.9775 21.1736 26.1718 21.6078 26.4857 21.9216C26.7997 22.2357 27.2337 22.4298 27.7131 22.4298C28.1939 22.4298 28.6278 22.2361 28.9405 21.9234L28.9423 21.9216C29.255 21.6089 29.4487 21.175 29.4487 20.6942C29.4487 20.2148 29.2545 19.7808 28.9405 19.4668Z" fill="#585858"/>
</svg>
