<svg width="193" height="118" viewBox="0 0 193 118" fill="none" xmlns="http://www.w3.org/2000/svg">
<path d="M4.97417 74.9415V93.0585H5.06282L6.25454 91.3752C9.28915 93.8262 11.9313 95.0516 14.174 95.0516C17.4157 95.0516 20.0804 93.8703 22.1749 91.5153C24.2104 89.2416 25.2243 86.4731 25.2243 83.2026C25.2243 79.9026 24.092 77.134 21.8197 74.8898C19.5475 72.653 16.7646 71.5308 13.4635 71.5308C10.1328 71.5308 7.30568 72.6675 4.97417 74.9415ZM0.000328032 101.342H2.66479V74.41C2.66479 73.4355 2.46505 72.7783 2.07278 72.4389C1.68034 72.0993 0.991983 71.9296 0.000328032 71.9296V71.1765H4.97417V72.9483C8.31208 71.3536 11.3244 70.5564 14.0185 70.5564C17.8896 70.5564 21.1092 71.7227 23.6775 74.0556C26.2458 76.3886 27.5337 79.4746 27.5337 83.3135C27.5337 86.9751 26.2902 89.9873 23.8033 92.3497C21.3165 94.7122 18.2373 95.8935 14.5663 95.8935C13.5301 95.8935 12.5532 95.7605 11.6352 95.4947V95.7162C11.6352 96.3289 13.3079 97.3699 16.6533 98.8392C19.6435 100.124 21.7012 100.899 22.8261 101.143C23.9511 101.393 24.9282 101.519 25.7572 101.519C26.4973 101.519 27.6076 101.312 29.0877 100.899L29.2211 101.585C27.6518 102.191 26.2233 102.494 24.9207 102.494C19.6583 102.494 13.0118 99.3927 4.97384 93.1914V96.7792C4.97384 98.5806 5.2329 99.7914 5.75085 100.411C6.26896 101.032 7.41628 101.342 9.19264 101.342V102.183H0L0.000328032 101.342ZM43.6984 71.9294V71.1763H51.5143V71.9294H48.8053V98.5068C48.8053 99.5698 48.9903 100.308 49.3604 100.722C49.7306 101.135 50.4484 101.342 51.5143 101.342V102.183H43.6984V101.342H46.4962V81.4529H36.2379V98.5068C36.2379 100.397 37.1704 101.342 39.0355 101.342V102.183H31.2198V101.342H33.9286V74.4098C33.9286 73.4058 33.7289 72.7414 33.3291 72.4167C32.9294 72.0917 32.2263 71.9294 31.2198 71.9294V71.1763H39.0355V71.9294H36.2379V80.6113H46.4962V75.03C46.4962 73.7897 46.3333 72.9629 46.0076 72.5495C45.682 72.1362 44.9122 71.9294 43.6984 71.9294ZM58.4421 71.9294V80.567H62.6609V76.6247H63.327V86.4141H62.6609C62.6609 84.1993 62.498 82.8557 62.1798 82.3832C61.7358 81.6449 60.4923 81.2757 58.4421 81.2757V101.342H62.4168C63.5121 101.342 64.4373 101.268 65.2071 101.12C66.5022 100.884 67.309 99.8355 67.6346 97.9751C67.7234 97.414 67.768 95.9375 67.768 93.5456H68.5229V104.354H67.768V102.183H53.424V101.342H56.1329V74.1883C56.1329 73.2433 55.8961 72.6084 55.4224 72.2836C55.0375 72.0473 54.3715 71.9293 53.4242 71.9293V71.1762H67.7681V68.8728H68.523V80.434H67.7681C67.7681 77.8057 67.7236 76.1963 67.6348 75.6057C67.3092 73.5681 66.4579 72.4163 65.074 72.1507C64.3339 72.0032 63.3347 71.9293 62.0691 71.9293L58.4421 71.9294ZM70.1214 71.9294V71.1763H78.3816V71.9294H75.3617V98.5068C75.3617 99.5698 75.5913 100.308 76.0501 100.722C76.509 101.135 77.2862 101.342 78.3816 101.342V102.183H70.1214V101.342H73.0525V74.41C73.0525 73.4059 72.786 72.712 72.2532 72.3281C71.8683 72.0623 71.1577 71.9294 70.1214 71.9294ZM80.2467 71.9294V71.1763H84.4359L96.056 97.1335H96.1894V75.2956C96.1894 73.8783 95.982 72.9627 95.5676 72.5494C95.1532 72.136 94.2205 71.9293 92.7699 71.9293V71.1762H100.142V71.9293H97.1663V104.841L84.1547 75.8273H83.9327V97.7536C83.9327 99.2301 84.1768 100.197 84.6653 100.655C85.1539 101.113 86.1383 101.342 87.6184 101.342V102.183H80.2467V101.342H82.9556V75.0299C82.9556 73.7895 82.8224 72.9923 82.5486 72.6379C82.2156 72.1654 81.4532 71.9294 80.2467 71.9294ZM112.754 90.8436V92.7042H103.472V90.8436H112.754ZM115.862 101.342H118.616V74.543C118.616 73.5094 118.416 72.8153 118.016 72.4609C117.616 72.1066 116.898 71.9294 115.862 71.9294V71.1763H120.162L127.512 88.5844H127.645L134.07 71.1763H139.132V71.9294H136.379V98.5068C136.379 99.6288 136.549 100.382 136.89 100.766C137.23 101.15 137.978 101.342 139.132 101.342V102.183H131.405V101.342H134.07V74.4541L127.031 92.7924L119.592 75.4285V98.5066C119.592 99.6286 119.918 100.397 120.57 100.81C121.073 101.164 121.902 101.342 123.056 101.342V102.183H115.862V101.342ZM147.836 102.183H139.798V101.342H141.53L150.723 69.0501L158.939 98.1081C159.294 99.3485 159.605 100.131 159.871 100.456C160.315 101.046 161.055 101.342 162.092 101.342V102.183H154.587V101.342H157.74L152.677 83.3135H147.703L143.973 96.6022C143.707 97.5472 143.573 98.3445 143.573 98.9941C143.573 100.175 144.032 100.899 144.95 101.165C145.305 101.283 146.267 101.342 147.837 101.342L147.836 102.183ZM147.836 82.4717H152.499L150.641 75.8718C150.434 75.1337 150.323 74.41 150.323 73.7013H150.234L147.836 82.4717ZM162.98 71.9296V71.1765H171.24V71.9296H168.22V98.5069C168.22 99.5699 168.45 100.308 168.908 100.722C169.367 101.135 170.145 101.342 171.24 101.342V102.183H162.98V101.342H165.911V74.4101C165.911 73.4061 165.644 72.7121 165.112 72.3282C164.727 72.0625 164.016 71.9296 162.98 71.9296ZM173.105 71.9296V71.1765H177.294L188.914 97.1337H189.048V75.2958C189.048 73.8785 188.84 72.9629 188.426 72.5495C188.012 72.1362 187.079 71.9294 185.628 71.9294V71.1763H193V71.9294H190.025V104.841L177.013 75.8275H176.791V97.7538C176.791 99.2303 177.035 100.198 177.524 100.655C178.012 101.113 178.997 101.342 180.477 101.342V102.183H173.105V101.342H175.814V75.03C175.814 73.7897 175.681 72.9925 175.407 72.6381C175.074 72.1656 174.312 71.9296 173.105 71.9296Z" fill="#585858"/>
<path d="M2.63184 117.815V110.424H2.79689L7.88107 116.077V110.424H8.64765V117.815H8.47391L3.41989 112.211V117.815H2.632H2.63184ZM17.9281 112.349V117.815H17.2042V116.875C16.899 117.233 16.5582 117.502 16.1784 117.681C15.8005 117.859 15.3853 117.949 14.9362 117.949C14.1377 117.949 13.4545 117.669 12.8884 117.11C12.3222 116.549 12.0403 115.869 12.0403 115.066C12.0403 114.282 12.326 113.61 12.8974 113.052C13.4671 112.495 14.1539 112.215 14.9577 112.215C15.4207 112.215 15.8397 112.309 16.2157 112.498C16.5902 112.687 16.9203 112.971 17.2042 113.354V112.349H17.9281ZM15.0144 112.894C14.6095 112.894 14.2352 112.99 13.8946 113.183C13.552 113.373 13.2806 113.642 13.0782 113.989C12.8759 114.336 12.7746 114.703 12.7746 115.09C12.7746 115.473 12.8758 115.84 13.0798 116.19C13.284 116.54 13.5571 116.813 13.9015 117.007C14.2458 117.202 14.615 117.3 15.0088 117.3C15.4045 117.3 15.7826 117.204 16.1375 117.01C16.4941 116.816 16.7675 116.556 16.9591 116.224C17.1509 115.895 17.2466 115.523 17.2466 115.109C17.2466 114.48 17.0321 113.953 16.6007 113.529C16.1712 113.105 15.6423 112.894 15.0142 112.894L15.0144 112.894ZM26.9798 113.484L26.403 113.831C25.9026 113.193 25.2193 112.874 24.3534 112.874C23.6614 112.874 23.0862 113.088 22.6284 113.515C22.1723 113.943 21.9435 114.461 21.9435 115.071C21.9435 115.47 22.0482 115.844 22.2595 116.194C22.4688 116.544 22.7581 116.816 23.1254 117.01C23.4909 117.204 23.9026 117.3 24.3586 117.3C25.1927 117.3 25.8741 116.981 26.403 116.343L26.9798 116.71C26.7082 117.103 26.3443 117.407 25.8884 117.624C25.4306 117.841 24.9105 117.949 24.3267 117.949C23.4288 117.949 22.6852 117.674 22.0941 117.127C21.5032 116.578 21.2087 115.912 21.2087 115.126C21.2087 114.6 21.3472 114.109 21.6239 113.656C21.8989 113.203 22.2787 112.849 22.7615 112.596C23.2459 112.342 23.7853 112.215 24.3834 112.215C24.7597 112.215 25.1218 112.27 25.4712 112.379C25.819 112.489 26.1154 112.633 26.3586 112.81C26.6035 112.987 26.8093 113.212 26.9798 113.484V113.484ZM30.2905 110.238H31.0145V113.335C31.309 112.961 31.6357 112.68 31.9888 112.494C32.3436 112.307 32.727 112.215 33.1404 112.215C33.5645 112.215 33.9407 112.318 34.2692 112.525C34.5975 112.733 34.8404 113.013 34.9966 113.361C35.1528 113.711 35.2308 114.258 35.2308 115.005V117.815H34.5068V115.211C34.5068 114.583 34.4801 114.162 34.4288 113.951C34.3382 113.591 34.1731 113.32 33.9355 113.136C33.6975 112.954 33.3854 112.864 32.9984 112.864C32.5564 112.864 32.1607 113.004 31.8112 113.286C31.4616 113.565 31.2309 113.914 31.1192 114.329C31.0499 114.596 31.0143 115.09 31.0143 115.813V117.815H30.2904V110.239L30.2905 110.238ZM38.5932 110.238H39.3173V117.815H38.5932V110.238ZM48.3795 112.349V117.815H47.6555V116.875C47.3503 117.233 47.0095 117.502 46.6298 117.681C46.2518 117.859 45.8366 117.949 45.3875 117.949C44.589 117.949 43.9058 117.669 43.3397 117.11C42.7736 116.549 42.4916 115.869 42.4916 115.066C42.4916 114.282 42.7773 113.61 43.3487 113.052C43.9184 112.495 44.6052 112.215 45.409 112.215C45.872 112.215 46.291 112.309 46.667 112.498C47.0415 112.687 47.3716 112.971 47.6555 113.354V112.349H48.3795ZM45.4657 112.894C45.0609 112.894 44.6865 112.99 44.3459 113.183C44.0033 113.373 43.7319 113.642 43.5295 113.989C43.3272 114.336 43.2259 114.703 43.2259 115.09C43.2259 115.473 43.3271 115.84 43.5311 116.19C43.7354 116.54 44.0084 116.813 44.3528 117.007C44.6972 117.202 45.0663 117.3 45.4601 117.3C45.8558 117.3 46.2339 117.204 46.5888 117.01C46.9454 116.816 47.2188 116.556 47.4104 116.224C47.6022 115.895 47.6979 115.523 47.6979 115.109C47.6979 114.48 47.4834 113.953 47.052 113.529C46.6226 113.105 46.0936 112.894 45.4655 112.894L45.4657 112.894ZM54.7904 112.942L54.322 113.409C53.9332 113.045 53.5518 112.863 53.1809 112.863C52.9449 112.863 52.7426 112.939 52.5741 113.09C52.4055 113.239 52.3202 113.416 52.3202 113.617C52.3202 113.793 52.3896 113.963 52.5279 114.123C52.6664 114.287 52.959 114.48 53.4028 114.701C53.9424 114.97 54.3097 115.233 54.5049 115.483C54.6949 115.737 54.7906 116.024 54.7906 116.341C54.7906 116.791 54.6272 117.17 54.3007 117.482C53.9742 117.793 53.5661 117.949 53.0763 117.949C52.7498 117.949 52.4394 117.88 52.1411 117.743C51.8446 117.606 51.5999 117.417 51.4045 117.175L51.8624 116.672C52.2332 117.077 52.629 117.28 53.046 117.28C53.3373 117.28 53.5856 117.189 53.7914 117.009C53.9953 116.828 54.0984 116.616 54.0984 116.372C54.0984 116.171 54.0309 115.993 53.8962 115.835C53.7595 115.68 53.4541 115.487 52.9786 115.253C52.4676 114.999 52.1198 114.749 51.937 114.502C51.7526 114.255 51.6602 113.973 51.6602 113.656C51.6602 113.243 51.8075 112.899 52.1003 112.625C52.3948 112.352 52.7659 112.215 53.2147 112.215C53.7364 112.215 54.2617 112.457 54.7906 112.942H54.7904ZM60.8395 112.942L60.3711 113.409C59.9823 113.045 59.6009 112.863 59.23 112.863C58.9938 112.863 58.7917 112.939 58.6232 113.09C58.4546 113.239 58.3692 113.416 58.3692 113.617C58.3692 113.793 58.4385 113.963 58.577 114.123C58.7153 114.287 59.0081 114.48 59.4519 114.701C59.9915 114.97 60.3588 115.233 60.554 115.483C60.7438 115.737 60.8397 116.024 60.8397 116.341C60.8397 116.791 60.6763 117.17 60.3498 117.482C60.0233 117.793 59.6152 117.949 59.1254 117.949C58.7989 117.949 58.4883 117.88 58.1902 117.743C57.8937 117.606 57.649 117.417 57.4536 117.175L57.9115 116.672C58.2823 117.077 58.6781 117.28 59.0951 117.28C59.3862 117.28 59.6347 117.189 59.8404 117.009C60.0444 116.828 60.1475 116.616 60.1475 116.372C60.1475 116.171 60.08 115.993 59.9453 115.835C59.8086 115.68 59.5032 115.487 59.0277 115.253C58.5167 114.999 58.1689 114.749 57.9861 114.502C57.8016 114.255 57.7091 113.973 57.7091 113.656C57.7091 113.243 57.8566 112.899 58.1494 112.625C58.4439 112.352 58.815 112.215 59.2638 112.215C59.7855 112.215 60.3106 112.457 60.8397 112.942H60.8395ZM80.2569 115.087L80.7842 115.624C80.4469 115.902 80.1294 116.145 79.8329 116.356C80.0335 116.542 80.3013 116.794 80.6385 117.115C80.8994 117.37 81.1284 117.604 81.3234 117.815H80.2569L79.2419 116.811C78.6048 117.302 78.0883 117.624 77.6892 117.774C77.2917 117.925 76.871 118 76.4292 118C75.8402 118 75.3679 117.837 75.0113 117.511C74.6545 117.185 74.4773 116.778 74.4773 116.291C74.4773 115.924 74.5961 115.555 74.8357 115.186C75.0754 114.817 75.5632 114.351 76.2998 113.786C75.888 113.296 75.6236 112.934 75.5048 112.7C75.3875 112.467 75.3291 112.244 75.3291 112.031C75.3291 111.662 75.4763 111.357 75.7692 111.115C76.1081 110.832 76.5304 110.691 77.0344 110.691C77.3538 110.691 77.6431 110.753 77.9057 110.877C78.1683 111.002 78.3689 111.168 78.5071 111.377C78.6456 111.587 78.7149 111.81 78.7149 112.045C78.7149 112.292 78.6244 112.556 78.4451 112.836C78.2641 113.117 77.9073 113.474 77.3768 113.91L78.5374 115.087L79.2951 115.828C79.6998 115.533 80.021 115.286 80.2569 115.087ZM76.9047 113.357C77.274 113.08 77.5543 112.807 77.7405 112.537C77.8718 112.347 77.9375 112.177 77.9375 112.03C77.9375 111.86 77.8523 111.712 77.6802 111.587C77.5097 111.463 77.2827 111.402 76.9986 111.402C76.729 111.402 76.5089 111.465 76.3384 111.592C76.1699 111.721 76.0847 111.872 76.0847 112.045C76.0847 112.179 76.1185 112.306 76.1876 112.422C76.3581 112.707 76.5958 113.019 76.9046 113.357H76.9047ZM76.8036 114.344C76.1576 114.816 75.7335 115.19 75.533 115.47C75.3324 115.747 75.2332 116.007 75.2332 116.243C75.2332 116.523 75.3557 116.772 75.6023 116.988C75.8492 117.202 76.1508 117.31 76.5074 117.31C76.779 117.31 77.0434 117.256 77.3042 117.148C77.7142 116.976 78.1809 116.688 78.7078 116.281L77.5012 115.089C77.2933 114.876 77.0611 114.629 76.8038 114.344L76.8036 114.344ZM89.2937 110.424H90.0604V113.522H93.9573V110.424H94.724V117.815H93.9573V114.243H90.0604V117.815H89.2937V110.424ZM104.01 112.349V117.815H103.286V116.875C102.98 117.233 102.64 117.502 102.26 117.681C101.882 117.86 101.467 117.949 101.018 117.949C100.219 117.949 99.536 117.669 98.9698 117.11C98.4039 116.549 98.1218 115.869 98.1218 115.066C98.1218 114.282 98.4076 113.61 98.9788 113.052C99.5486 112.495 100.236 112.215 101.039 112.215C101.502 112.215 101.921 112.31 102.297 112.498C102.672 112.687 103.002 112.972 103.286 113.354V112.349H104.01ZM101.096 112.894C100.691 112.894 100.317 112.99 99.976 113.183C99.6336 113.373 99.3621 113.642 99.1596 113.989C98.9575 114.336 98.8561 114.703 98.8561 115.09C98.8561 115.473 98.9574 115.84 99.1614 116.19C99.3655 116.54 99.6387 116.813 99.9831 117.007C100.327 117.202 100.697 117.3 101.09 117.3C101.486 117.3 101.864 117.204 102.219 117.01C102.576 116.816 102.849 116.556 103.041 116.225C103.232 115.895 103.328 115.523 103.328 115.109C103.328 114.48 103.114 113.953 102.682 113.529C102.253 113.105 101.724 112.894 101.096 112.894L101.096 112.894ZM107.567 112.349H108.291V113.328C108.584 112.954 108.907 112.675 109.26 112.491C109.615 112.307 110 112.215 110.417 112.215C110.841 112.215 111.217 112.318 111.546 112.526C111.874 112.733 112.117 113.013 112.273 113.364C112.43 113.714 112.508 114.262 112.508 115.005V117.815H111.784V115.211C111.784 114.583 111.755 114.162 111.7 113.951C111.611 113.591 111.448 113.32 111.209 113.136C110.969 112.954 110.657 112.864 110.272 112.864C109.83 112.864 109.434 113.004 109.086 113.286C108.737 113.565 108.506 113.914 108.396 114.329C108.327 114.6 108.291 115.094 108.291 115.813V117.815H107.567V112.349L107.567 112.349ZM121.62 110.239V117.815H120.896V116.875C120.59 117.233 120.25 117.502 119.87 117.681C119.492 117.86 119.077 117.949 118.628 117.949C117.829 117.949 117.146 117.669 116.58 117.11C116.014 116.549 115.731 115.869 115.731 115.066C115.731 114.282 116.017 113.61 116.589 113.052C117.158 112.495 117.845 112.215 118.649 112.215C119.112 112.215 119.531 112.311 119.907 112.502C120.282 112.692 120.612 112.979 120.896 113.361V110.239H121.62V110.239ZM118.706 112.894C118.301 112.894 117.927 112.99 117.586 113.183C117.243 113.373 116.972 113.642 116.77 113.989C116.567 114.336 116.466 114.703 116.466 115.09C116.466 115.473 116.567 115.84 116.771 116.19C116.975 116.54 117.249 116.813 117.593 117.007C117.937 117.202 118.306 117.3 118.7 117.3C119.096 117.3 119.474 117.204 119.829 117.01C120.186 116.816 120.459 116.556 120.65 116.225C120.842 115.895 120.938 115.523 120.938 115.109C120.938 114.48 120.723 113.953 120.292 113.529C119.863 113.105 119.334 112.894 118.705 112.894L118.706 112.894ZM129.96 116.003L130.574 116.315C130.371 116.694 130.139 117.002 129.874 117.235C129.61 117.467 129.314 117.645 128.984 117.767C128.652 117.889 128.279 117.949 127.862 117.949C126.936 117.949 126.213 117.657 125.692 117.074C125.17 116.491 124.909 115.831 124.909 115.097C124.909 114.406 125.131 113.788 125.573 113.248C126.132 112.56 126.883 112.215 127.821 112.215C128.788 112.215 129.562 112.568 130.139 113.273C130.549 113.771 130.758 114.392 130.765 115.138H125.655C125.669 115.771 125.88 116.29 126.286 116.693C126.694 117.098 127.198 117.3 127.797 117.3C128.086 117.3 128.368 117.252 128.641 117.156C128.915 117.06 129.147 116.933 129.339 116.773C129.53 116.614 129.738 116.358 129.96 116.003L129.96 116.003ZM129.967 114.531C129.869 114.155 129.727 113.857 129.541 113.632C129.353 113.408 129.106 113.227 128.799 113.09C128.492 112.953 128.169 112.884 127.832 112.884C127.273 112.884 126.794 113.056 126.393 113.4C126.098 113.653 125.878 114.028 125.727 114.531H129.967V114.531ZM133.914 110.239H134.638V117.815H133.914V110.239ZM140.922 112.942L140.453 113.409C140.064 113.045 139.683 112.864 139.312 112.864C139.076 112.864 138.874 112.939 138.705 113.09C138.537 113.239 138.452 113.416 138.452 113.617C138.452 113.794 138.521 113.963 138.659 114.123C138.798 114.288 139.09 114.48 139.534 114.701C140.074 114.97 140.441 115.233 140.636 115.483C140.826 115.737 140.922 116.024 140.922 116.341C140.922 116.791 140.759 117.17 140.432 117.482C140.105 117.793 139.697 117.949 139.208 117.949C138.881 117.949 138.571 117.88 138.272 117.743C137.976 117.606 137.731 117.417 137.536 117.175L137.994 116.672C138.364 117.077 138.76 117.28 139.177 117.28C139.469 117.28 139.717 117.189 139.923 117.009C140.127 116.829 140.23 116.616 140.23 116.372C140.23 116.171 140.162 115.993 140.027 115.835C139.891 115.681 139.585 115.487 139.11 115.254C138.599 115 138.251 114.749 138.068 114.502C137.884 114.255 137.791 113.974 137.791 113.656C137.791 113.243 137.939 112.899 138.232 112.625C138.526 112.352 138.897 112.215 139.346 112.215C139.868 112.215 140.393 112.457 140.922 112.942H140.922ZM146.971 112.942L146.502 113.409C146.114 113.045 145.732 112.864 145.361 112.864C145.125 112.864 144.923 112.939 144.754 113.09C144.586 113.239 144.501 113.416 144.501 113.617C144.501 113.794 144.57 113.963 144.708 114.123C144.847 114.288 145.139 114.48 145.583 114.701C146.123 114.97 146.49 115.233 146.685 115.483C146.875 115.737 146.971 116.024 146.971 116.341C146.971 116.791 146.808 117.17 146.481 117.482C146.155 117.793 145.746 117.949 145.257 117.949C144.93 117.949 144.62 117.88 144.321 117.743C144.025 117.606 143.78 117.417 143.585 117.175L144.043 116.672C144.414 117.077 144.809 117.28 145.226 117.28C145.518 117.28 145.766 117.189 145.972 117.009C146.176 116.829 146.279 116.616 146.279 116.372C146.279 116.171 146.211 115.993 146.077 115.835C145.94 115.681 145.634 115.487 145.159 115.254C144.648 115 144.3 114.749 144.117 114.502C143.933 114.255 143.841 113.974 143.841 113.656C143.841 113.243 143.988 112.899 144.281 112.625C144.575 112.352 144.946 112.215 145.395 112.215C145.917 112.215 146.442 112.457 146.971 112.942H146.971ZM154.94 116.003L155.554 116.315C155.352 116.694 155.119 117.002 154.855 117.235C154.59 117.467 154.294 117.645 153.964 117.767C153.632 117.889 153.259 117.949 152.842 117.949C151.916 117.949 151.194 117.657 150.672 117.074C150.15 116.491 149.889 115.831 149.889 115.097C149.889 114.406 150.111 113.788 150.553 113.248C151.112 112.56 151.863 112.215 152.802 112.215C153.769 112.215 154.542 112.568 155.119 113.273C155.529 113.771 155.739 114.392 155.746 115.138H150.635C150.649 115.771 150.86 116.29 151.267 116.693C151.675 117.098 152.179 117.3 152.777 117.3C153.066 117.3 153.348 117.252 153.621 117.156C153.895 117.06 154.127 116.933 154.319 116.773C154.511 116.614 154.718 116.358 154.94 116.003L154.94 116.003ZM154.947 114.531C154.849 114.155 154.707 113.857 154.521 113.632C154.333 113.408 154.086 113.227 153.779 113.09C153.472 112.953 153.149 112.884 152.812 112.884C152.253 112.884 151.774 113.056 151.373 113.4C151.078 113.653 150.858 114.028 150.708 114.531H154.947V114.531ZM158.724 112.349H159.47V113.148C159.691 112.833 159.926 112.599 160.172 112.445C160.419 112.292 160.676 112.215 160.942 112.215C161.145 112.215 161.36 112.277 161.588 112.4L161.209 112.99C161.056 112.927 160.928 112.894 160.824 112.894C160.581 112.894 160.346 112.99 160.121 113.183C159.895 113.375 159.723 113.675 159.605 114.08C159.514 114.391 159.47 115.02 159.47 115.967V117.815H158.724V112.349ZM163.588 112.349H164.349L166.253 116.339L168.143 112.349H168.922L166.335 117.815H166.196L163.588 112.349H163.588ZM172.19 110.105C172.355 110.105 172.495 110.161 172.613 110.276C172.73 110.39 172.788 110.529 172.788 110.688C172.788 110.846 172.73 110.983 172.613 111.096C172.495 111.211 172.355 111.268 172.19 111.268C172.027 111.268 171.889 111.211 171.771 111.096C171.654 110.983 171.596 110.846 171.596 110.688C171.596 110.528 171.654 110.389 171.771 110.276C171.889 110.161 172.027 110.105 172.19 110.105ZM171.83 112.349H172.554V117.815H171.83V112.349ZM181.478 113.485L180.901 113.831C180.401 113.193 179.718 112.874 178.852 112.874C178.16 112.874 177.585 113.088 177.127 113.515C176.671 113.943 176.442 114.461 176.442 115.072C176.442 115.47 176.547 115.844 176.758 116.194C176.967 116.544 177.256 116.816 177.624 117.01C177.989 117.204 178.401 117.3 178.857 117.3C179.691 117.3 180.373 116.981 180.901 116.343L181.478 116.71C181.207 117.103 180.843 117.407 180.387 117.625C179.929 117.841 179.409 117.949 178.825 117.949C177.927 117.949 177.183 117.674 176.592 117.127C176.002 116.578 175.707 115.912 175.707 115.126C175.707 114.6 175.846 114.109 176.122 113.656C176.397 113.203 176.777 112.85 177.26 112.596C177.744 112.342 178.284 112.215 178.882 112.215C179.258 112.215 179.62 112.27 179.97 112.38C180.317 112.489 180.614 112.633 180.857 112.81C181.102 112.987 181.308 113.212 181.478 113.484V113.485ZM189.562 116.003L190.176 116.315C189.974 116.694 189.742 117.002 189.477 117.235C189.213 117.467 188.916 117.645 188.586 117.767C188.255 117.889 187.882 117.949 187.465 117.949C186.539 117.949 185.816 117.657 185.295 117.074C184.773 116.491 184.512 115.831 184.512 115.097C184.512 114.406 184.734 113.788 185.176 113.248C185.735 112.56 186.485 112.215 187.424 112.215C188.391 112.215 189.165 112.568 189.742 113.273C190.152 113.771 190.361 114.392 190.368 115.138H185.257C185.272 115.771 185.483 116.29 185.889 116.693C186.297 117.098 186.801 117.3 187.399 117.3C187.689 117.3 187.971 117.252 188.244 117.156C188.517 117.06 188.75 116.933 188.942 116.773C189.133 116.614 189.341 116.358 189.563 116.003L189.562 116.003ZM189.569 114.531C189.472 114.155 189.33 113.857 189.144 113.632C188.955 113.408 188.709 113.227 188.402 113.09C188.095 112.953 187.772 112.884 187.435 112.884C186.876 112.884 186.397 113.056 185.996 113.4C185.701 113.653 185.481 114.028 185.33 114.531H189.569V114.531ZM63.5661 114.727H66.4199V115.344H63.5661V114.727Z" fill="#9EA9A3"/>
<path d="M27.6341 55.7137C42.896 55.7137 55.2682 43.3415 55.2682 28.0796C55.2682 12.8178 42.896 0.445557 27.6341 0.445557C12.3722 0.445557 0 12.8178 0 28.0796C0 43.3415 12.3722 55.7137 27.6341 55.7137Z" fill="#CAB6C2"/>
<path d="M96.4833 55.7136C111.745 55.7136 124.117 43.3414 124.117 28.0795C124.117 12.8176 111.745 0.445435 96.4833 0.445435C81.2214 0.445435 68.8492 12.8176 68.8492 28.0795C68.8492 43.3414 81.2214 55.7136 96.4833 55.7136Z" fill="#ECE3C4"/>
<path d="M165.333 55.7136C180.595 55.7136 192.967 43.3414 192.967 28.0795C192.967 12.8176 180.595 0.445435 165.333 0.445435C150.071 0.445435 137.699 12.8176 137.699 28.0795C137.699 43.3414 150.071 55.7136 165.333 55.7136Z" fill="#B2BDB7"/>
<path d="M85.4944 13.2715C85.3684 13.2722 85.2478 13.3224 85.1587 13.4115C85.0696 13.5006 85.0194 13.6214 85.0187 13.7472V15.1798C85.0178 15.3063 85.0671 15.428 85.156 15.5185L85.6356 15.9981C85.7258 16.0867 85.8478 16.1363 85.9743 16.1352V32.379C85.9113 32.3787 85.8489 32.3911 85.7905 32.415C85.7324 32.439 85.6792 32.4742 85.6349 32.519C85.5901 32.5637 85.555 32.6163 85.5308 32.6747C85.5068 32.733 85.4944 32.7956 85.4947 32.8584C85.4951 32.9214 85.5075 32.9833 85.5319 33.0411C85.5561 33.0989 85.5915 33.1514 85.6363 33.1957C85.6808 33.24 85.7333 33.275 85.7916 33.2987C85.8498 33.3225 85.912 33.3348 85.9745 33.3343V40.0244C85.848 40.0235 85.7263 40.0728 85.6358 40.1617L85.1562 40.6413C85.0676 40.7315 85.018 40.8535 85.0189 40.98V42.4116C85.0194 42.5377 85.0694 42.6588 85.1585 42.7481C85.2475 42.8374 85.3686 42.8876 85.4947 42.8883H107.472C107.598 42.8876 107.719 42.8374 107.808 42.7481C107.897 42.6588 107.947 42.5377 107.948 42.4116V40.98C107.948 40.9172 107.935 40.8549 107.911 40.7966C107.887 40.7386 107.851 40.6859 107.807 40.6413L107.331 40.1617C107.241 40.0731 107.119 40.0235 106.992 40.0244V33.3343C107.055 33.3348 107.117 33.3225 107.175 33.2987C107.233 33.275 107.286 33.24 107.33 33.1957C107.375 33.1514 107.41 33.0991 107.435 33.0411C107.459 32.9833 107.472 32.9212 107.472 32.8584C107.472 32.7953 107.46 32.733 107.436 32.6747C107.412 32.6163 107.376 32.5635 107.332 32.519C107.287 32.4742 107.234 32.4392 107.176 32.415C107.118 32.3911 107.055 32.3787 106.992 32.379V16.1352C107.119 16.1363 107.241 16.087 107.331 15.9979L107.807 15.5183C107.852 15.4739 107.887 15.4214 107.912 15.3629C107.936 15.3049 107.949 15.2423 107.949 15.1795V13.7472C107.948 13.6209 107.898 13.5001 107.809 13.411C107.719 13.322 107.598 13.2717 107.472 13.2715H85.4949H85.4944ZM85.9741 14.2244H106.992V14.982L106.795 15.1798H86.168L85.9739 14.982V14.2244H85.9741ZM86.9304 16.1352H96.0036V32.379H86.9304V16.1352ZM96.9587 16.1352H106.037V32.379H96.9587V16.1352ZM88.3618 17.0906C88.2987 17.091 88.2368 17.1033 88.1791 17.1278C88.1213 17.152 88.0687 17.1874 88.0244 17.2322C87.9801 17.2767 87.9452 17.3292 87.9214 17.3877C87.8977 17.4457 87.8853 17.5078 87.8856 17.5704V30.9467C87.8862 31.0727 87.9365 31.1936 88.0253 31.2826C88.1146 31.3717 88.2353 31.422 88.3616 31.4224C88.4874 31.422 88.6084 31.3717 88.6973 31.2826C88.7864 31.1936 88.8366 31.0727 88.8373 30.9467V17.5704C88.8375 17.5076 88.8252 17.4457 88.8014 17.3877C88.7777 17.3295 88.7428 17.2767 88.6984 17.2322C88.6544 17.1874 88.6018 17.1522 88.5438 17.1278C88.486 17.1036 88.4239 17.091 88.3613 17.0906H88.3618ZM104.605 17.0906C104.542 17.0903 104.479 17.1027 104.421 17.1264C104.363 17.1504 104.31 17.1858 104.265 17.2303C104.22 17.2751 104.185 17.3279 104.161 17.3863C104.137 17.4446 104.124 17.5074 104.125 17.5702V30.9464C104.125 31.0095 104.137 31.0714 104.162 31.1294C104.186 31.1872 104.222 31.2399 104.266 31.2842C104.311 31.3283 104.364 31.3635 104.422 31.3872C104.48 31.4108 104.543 31.4229 104.605 31.4224C104.731 31.422 104.852 31.3717 104.941 31.2826C105.03 31.1936 105.08 31.0727 105.081 30.9467V17.5704C105.081 17.5076 105.069 17.4457 105.045 17.3877C105.021 17.3295 104.987 17.2767 104.942 17.2322C104.898 17.1874 104.846 17.1522 104.788 17.1278C104.73 17.1036 104.667 17.091 104.605 17.0906H104.605ZM94.572 23.301C94.4454 23.3017 94.3241 23.3524 94.2348 23.4424C94.1458 23.5321 94.0957 23.6541 94.0962 23.7806V24.736C94.0964 24.8623 94.1467 24.9834 94.2358 25.0727C94.3248 25.162 94.4459 25.2124 94.572 25.2127C94.635 25.2129 94.6971 25.2008 94.7551 25.1771C94.8134 25.1533 94.8661 25.1181 94.9107 25.0738C94.9552 25.0295 94.9904 24.977 95.0148 24.9187C95.039 24.8609 95.0516 24.7986 95.0516 24.7358V23.7804C95.0521 23.7173 95.0397 23.655 95.0158 23.5967C94.9918 23.5383 94.9561 23.4855 94.9116 23.441C94.8671 23.3962 94.8141 23.3613 94.7558 23.3371C94.6976 23.3131 94.635 23.3005 94.572 23.3007V23.301ZM98.3949 23.301C98.3319 23.3007 98.2693 23.3133 98.2111 23.3373C98.1526 23.3613 98.0996 23.3964 98.0553 23.4412C98.0108 23.486 97.9753 23.5385 97.9511 23.597C97.9272 23.6552 97.915 23.7178 97.9153 23.7806V24.736C97.9153 24.799 97.9278 24.8612 97.9521 24.919C97.9763 24.977 98.0117 25.0297 98.0562 25.074C98.101 25.1184 98.1535 25.1535 98.2117 25.1773C98.2698 25.201 98.3321 25.2131 98.3949 25.2129C98.521 25.2127 98.6421 25.1622 98.7311 25.0729C98.82 24.9836 98.8704 24.8625 98.8704 24.7362V23.7808C98.8711 23.6543 98.8211 23.5326 98.7318 23.4426C98.6427 23.3526 98.5212 23.3019 98.3947 23.3012L98.3949 23.301ZM86.9304 33.3341H96.0036V36.2015H86.9304V33.3341ZM96.9587 33.3341H106.037V36.2015H96.9587V33.3341ZM91.2291 34.2897C91.1661 34.2893 91.1035 34.3016 91.0453 34.3256C90.9868 34.3496 90.9338 34.385 90.8895 34.4298C90.8447 34.4743 90.8098 34.5271 90.7853 34.5853C90.7613 34.6438 90.7492 34.7063 90.7495 34.7694C90.7497 34.832 90.762 34.8941 90.7865 34.9519C90.8109 35.0097 90.8461 35.0624 90.8908 35.1065C90.9354 35.1508 90.9881 35.1858 91.0464 35.2095C91.1044 35.2333 91.1665 35.2454 91.2293 35.2454H91.7049C91.7679 35.2454 91.8298 35.2333 91.8878 35.2095C91.9458 35.1858 91.9988 35.1508 92.0433 35.1065C92.0881 35.0624 92.1231 35.0099 92.1477 34.9519C92.1719 34.8941 92.1845 34.8317 92.1847 34.7694C92.185 34.7063 92.1728 34.6438 92.1489 34.5853C92.1247 34.5271 92.0893 34.4741 92.0447 34.4298C92.0002 34.385 91.9474 34.3498 91.889 34.3256C91.8307 34.3016 91.7681 34.2893 91.7051 34.2897H91.2296H91.2291ZM101.262 34.2897C101.199 34.2893 101.136 34.3014 101.078 34.3254C101.02 34.3494 100.966 34.3848 100.922 34.4293C100.877 34.4741 100.842 34.5268 100.818 34.5851C100.794 34.6435 100.781 34.7061 100.781 34.7694C100.782 34.8322 100.794 34.8943 100.819 34.9521C100.843 35.0099 100.879 35.0627 100.923 35.107C100.968 35.151 101.021 35.1862 101.079 35.2097C101.137 35.2335 101.199 35.2456 101.262 35.2454H101.738C101.801 35.2454 101.863 35.2333 101.921 35.2095C101.979 35.1858 102.032 35.1508 102.076 35.1065C102.121 35.0624 102.156 35.0099 102.181 34.9519C102.205 34.8941 102.217 34.8317 102.218 34.7694C102.218 34.7063 102.206 34.6438 102.182 34.5853C102.158 34.5271 102.122 34.4741 102.078 34.4298C102.033 34.385 101.98 34.3498 101.922 34.3256C101.864 34.3016 101.801 34.2893 101.738 34.2897H101.262H101.262ZM86.9304 37.1571H106.037V40.0242H86.9304V37.1571ZM91.2309 38.1122C91.1042 38.1118 90.9827 38.1618 90.8924 38.2509C90.8027 38.34 90.7518 38.4615 90.7513 38.588C90.7511 38.651 90.7634 38.7136 90.7874 38.7719C90.8114 38.8301 90.8468 38.8833 90.8913 38.9276C90.9361 38.9722 90.9888 39.0073 91.0471 39.0316C91.1053 39.0555 91.1679 39.0679 91.2309 39.0676H91.7067C91.7695 39.0674 91.8314 39.0551 91.8894 39.0304C91.9472 39.0062 91.9997 38.9708 92.044 38.9263C92.0883 38.8817 92.1233 38.829 92.147 38.7707C92.1706 38.7127 92.1829 38.6506 92.1827 38.5878C92.1822 38.4619 92.132 38.3409 92.0429 38.252C91.9538 38.1629 91.833 38.1125 91.7069 38.112H91.2312L91.2309 38.1122ZM101.262 38.1122C101.199 38.1118 101.137 38.1241 101.079 38.1479C101.021 38.1714 100.968 38.2063 100.923 38.2507C100.879 38.295 100.843 38.3475 100.819 38.4055C100.794 38.4633 100.782 38.5256 100.781 38.5882C100.781 38.6513 100.794 38.7141 100.818 38.7723C100.842 38.8306 100.877 38.8838 100.922 38.9281C100.967 38.9729 101.02 39.008 101.078 39.0322C101.136 39.056 101.199 39.0683 101.262 39.0679H101.738C101.801 39.0681 101.863 39.0558 101.922 39.0318C101.98 39.0078 102.033 38.9724 102.077 38.9279C102.122 38.8833 102.157 38.8303 102.182 38.7721C102.206 38.7139 102.218 38.6513 102.217 38.5882C102.217 38.4617 102.166 38.3404 102.076 38.2511C101.987 38.162 101.865 38.112 101.738 38.1125H101.262V38.1122ZM86.1682 40.9796H106.795L106.992 41.1767V41.9352H85.9743V41.1767L86.1685 40.9796H86.1682Z" fill="#585858"/>
<path fill-rule="evenodd" clip-rule="evenodd" d="M182.685 22.4536C182.68 22.4668 182.672 22.4787 182.662 22.4887C181.987 23.2979 181.316 24.1067 180.642 24.9171C175.868 30.6547 171.094 36.3932 166.321 42.1313C166.287 42.198 166.238 42.2526 166.175 42.2935C166.087 42.3782 165.973 42.4328 165.854 42.4257C165.721 42.4328 165.606 42.375 165.525 42.2866C165.506 42.2757 165.491 42.2633 165.479 42.2467C165.475 42.2419 165.471 42.2369 165.466 42.2325C165.437 42.2031 165.413 42.1788 165.397 42.1505C164.749 41.3746 164.107 40.5999 163.461 39.8231C158.651 34.0446 153.844 28.2668 149.039 22.4903C149.029 22.48 149.021 22.4693 149.016 22.4572C148.994 22.4298 148.976 22.3997 148.961 22.3681L148.949 22.3441L148.954 22.3503C148.937 22.3167 148.93 22.2877 148.924 22.2564C148.92 22.2434 148.918 22.2318 148.914 22.2188L148.908 22.2012L148.909 22.1669C148.9 22.037 148.934 21.91 149.016 21.8044L149.02 21.7951L149.032 21.7789C151.12 19.1651 153.211 16.5542 155.296 13.9388C155.392 13.8198 155.474 13.6892 155.582 13.5814C155.665 13.4596 155.799 13.3884 155.934 13.3674C155.962 13.3584 155.972 13.3475 156.005 13.3411C156.247 13.2947 156.497 13.339 156.74 13.339C158.104 13.339 159.467 13.339 160.831 13.339C164.596 13.339 168.362 13.339 172.127 13.339C173.093 13.339 174.072 13.2182 175.028 13.3393C175.059 13.3393 175.066 13.3468 175.074 13.3539C175.244 13.3454 175.415 13.4176 175.523 13.551C176.045 13.9132 176.354 14.5041 176.762 14.9735C178.73 17.2406 180.696 19.509 182.663 21.7775L182.691 21.8097V21.8165C182.72 21.8565 182.745 21.9017 182.762 21.9479C182.764 21.9522 182.765 21.9568 182.766 21.9614L182.767 21.9634C182.767 21.9643 182.767 21.965 182.767 21.9659C182.772 21.9812 182.773 21.9926 182.775 22.0059C182.784 22.0436 182.79 22.0774 182.79 22.1167C182.79 22.1203 182.789 22.1205 182.789 22.124L182.792 22.1349V22.1493C182.792 22.1646 182.789 22.179 182.789 22.1712C182.786 22.2046 182.781 22.2357 182.773 22.2647C182.767 22.2907 182.759 22.3131 182.746 22.3455C182.732 22.3773 182.715 22.4076 182.697 22.4344C182.693 22.4408 182.689 22.4469 182.685 22.4533V22.4536ZM173.288 21.6201C175.916 21.6201 178.543 21.6201 181.17 21.6201C179.259 19.4172 177.35 17.2125 175.442 15.0089C175.407 14.9703 175.37 14.9314 175.333 14.8931C175.318 14.9429 175.303 14.9924 175.287 15.0408C174.622 17.2344 173.955 19.4273 173.288 21.6201ZM166.717 14.3597C168.149 16.062 169.582 17.7634 171.015 19.4643C171.465 19.9978 171.945 20.5058 172.389 21.0434C172.4 21.0089 172.41 20.9749 172.421 20.9413C173.086 18.7478 173.753 16.5549 174.419 14.362C173.23 14.362 172.04 14.3607 170.851 14.3595C169.472 14.3584 168.094 14.3593 166.716 14.3595L166.717 14.3597ZM165.614 14.6389C163.61 16.9653 161.607 19.2936 159.603 21.6201C163.459 21.6201 167.315 21.6201 171.172 21.6201C171.279 21.6201 171.386 21.6201 171.493 21.6201C169.534 19.2923 167.575 16.9646 165.615 14.6389H165.614ZM156.716 14.3812C156.754 14.5075 156.79 14.6345 156.828 14.7608C157.458 16.8683 158.081 18.978 158.708 21.0864C160.639 18.846 162.568 16.604 164.498 14.3623C162.873 14.3623 161.248 14.3623 159.623 14.3623C158.654 14.3623 157.684 14.4306 156.716 14.3812ZM150.461 21.6181C151.457 21.6181 152.454 21.6181 153.451 21.6181C154.899 21.6181 156.347 21.6181 157.795 21.6181C157.756 21.4854 157.717 21.3522 157.678 21.2193C157.062 19.1383 156.443 17.0581 155.823 14.9783C155.666 15.1505 155.501 15.3174 155.357 15.497C153.719 17.5331 152.092 19.5766 150.461 21.6178L150.461 21.6181ZM164.319 39.2617C162.256 33.7239 160.194 28.1859 158.13 22.6482C155.585 22.6482 153.04 22.6482 150.495 22.6482C150.927 23.1682 151.36 23.6874 151.793 24.207C155.968 29.2252 160.142 34.2445 164.32 39.2615L164.319 39.2617ZM171.878 22.6459C168.092 22.6459 164.307 22.6459 160.522 22.6459C160.088 22.6459 159.654 22.6459 159.221 22.6459C159.447 23.2502 159.671 23.855 159.897 24.4596C161.875 29.7642 163.85 35.0701 165.828 40.3752C165.95 40.0136 166.073 39.6521 166.197 39.2907C168.09 33.7427 169.984 28.1942 171.878 22.6459H171.878ZM181.196 22.6436C180.209 22.6436 179.222 22.6436 178.235 22.6436C176.477 22.6436 174.719 22.6436 172.962 22.6436C172.938 22.7096 172.913 22.7758 172.891 22.8423C172.159 24.9806 171.432 27.1209 170.701 29.2596C169.542 32.6521 168.384 36.0456 167.226 39.4387C167.316 39.33 167.407 39.2215 167.498 39.113C172.067 33.6257 176.634 28.1364 181.196 22.6434L181.196 22.6436Z" fill="#585858"/>
<path fill-rule="evenodd" clip-rule="evenodd" d="M41.5373 41.9762C39.6208 41.9762 37.7043 41.9762 35.788 41.9762C31.894 41.9762 28.0062 41.9762 24.1125 41.9762C21.0304 41.9762 17.942 41.9762 14.8598 41.9762H14.1663C14.1328 41.9762 14.1641 42.0054 14.1641 41.9759C14.1677 40.9762 14.1641 39.9802 14.1641 38.9795C14.0115 39.1321 13.8589 39.2847 13.7063 39.4373C15.6226 39.4373 17.5391 39.4373 19.4556 39.4373C23.3496 39.4373 27.2372 39.4373 31.131 39.4373C34.2132 39.4373 37.3016 39.4373 40.3837 39.4373C40.7681 39.4373 41.1525 39.4373 41.5373 39.4373C41.3847 39.2847 41.2319 39.1321 41.0794 38.9795C41.0794 40.133 41.0794 41.2804 41.0794 42.4339C41.0794 42.6074 41.1844 42.1267 41.2954 42.1982C41.5636 42.3713 41.9948 42.8523 41.9948 42.4339C41.9948 41.2804 41.9948 40.133 41.9948 38.9795C41.9948 38.7292 41.7874 38.5216 41.5371 38.5216C39.6206 38.5216 37.7041 38.5216 35.7876 38.5216C31.8936 38.5216 28.006 38.5216 24.1122 38.5216C21.0302 38.5216 17.9418 38.5216 14.8595 38.5216C14.4751 38.5216 14.0907 38.5216 13.7061 38.5216C13.4558 38.5216 13.2482 38.729 13.2482 38.9795C13.2482 40.133 13.2482 41.2804 13.2482 42.4339C13.2482 42.6842 13.4556 42.8918 13.7061 42.8918C15.6224 42.8918 17.5389 42.8918 19.4554 42.8918C23.3494 42.8918 27.237 42.8918 31.1307 42.8918C34.213 42.8918 37.3014 42.8918 40.3834 42.8918C40.7678 42.8918 41.1522 42.8918 41.5371 42.8918C41.9461 42.8918 42.0725 42.4544 41.9162 42.1842C41.8461 42.0634 41.7198 41.9764 41.5371 41.9764L41.5373 41.9762Z" fill="#585858"/>
<path fill-rule="evenodd" clip-rule="evenodd" d="M40.4325 38.9794C40.4325 36.2939 40.4325 33.6024 40.4325 30.9171C40.4325 28.0911 40.4325 25.2654 40.4325 22.4396C40.4325 22.4335 40.4325 22.4273 40.4325 22.4273C40.4325 21.8353 39.5168 21.8353 39.5168 22.4273C39.5168 25.1126 39.5168 27.8043 39.5168 30.4896C39.5168 33.3156 39.5168 36.1411 39.5168 38.9671C39.5168 38.973 39.5168 38.9794 39.5168 38.9794C39.5168 39.5653 40.4325 39.5653 40.4325 38.9794Z" fill="#585858"/>
<path fill-rule="evenodd" clip-rule="evenodd" d="M15.5983 36.7273C15.5983 33.8588 15.5983 30.9903 15.5983 28.1216C15.5983 26.2236 15.5983 24.3195 15.5983 22.4212C15.5983 21.829 14.6827 21.829 14.6827 22.4212C14.6827 25.2897 14.6827 28.1582 14.6827 31.0269C14.6827 32.9249 14.6827 34.8291 14.6827 36.7273C14.6827 37.3195 15.5983 37.3195 15.5983 36.7273Z" fill="#585858"/>
<path fill-rule="evenodd" clip-rule="evenodd" d="M19.5595 21.9634H14.1699L14.164 16.0922H22.7331C23.8011 16.0922 24.8693 16.0922 25.9433 16.0922C26.5355 16.0922 26.5355 15.1765 25.9433 15.1765C22.9343 15.1765 19.9254 15.1765 16.9165 15.1765C15.8485 15.1765 14.7805 15.1765 13.7063 15.1765C13.456 15.1765 13.2484 15.3841 13.2484 15.6345C13.2484 17.8986 13.2484 20.1632 13.2484 22.4214C13.2484 22.6715 13.4557 22.8791 13.7063 22.8791C15.6593 22.8791 17.6062 22.8791 19.5593 22.8791C20.1513 22.8791 20.1513 21.9636 19.5593 21.9636L19.5595 21.9634Z" fill="#585858"/>
<path fill-rule="evenodd" clip-rule="evenodd" d="M29.483 16.0923C32.5041 16.0923 35.5194 16.0923 38.5404 16.0923C39.5474 16.0923 40.5545 16.0923 41.5613 16.0923C41.4087 15.9395 41.2561 15.7869 41.1035 15.6343C41.1035 17.8984 41.1035 20.163 41.1035 22.4212C41.2561 22.2684 41.4087 22.1158 41.5613 21.9633C39.6388 21.9633 37.7102 21.9633 35.7875 21.9633C35.1955 21.9633 35.1955 22.8787 35.7875 22.8787C37.7102 22.8787 39.6388 22.8787 41.5613 22.8787C41.8116 22.8787 42.0192 22.6713 42.0192 22.4208C42.0192 20.1566 42.0192 17.8923 42.0192 15.6341C42.0192 15.384 41.8118 15.1761 41.5613 15.1761C38.5404 15.1761 35.5251 15.1761 32.5041 15.1761C31.497 15.1761 30.49 15.1761 29.483 15.1761C28.891 15.1761 28.891 16.0918 29.483 16.0918V16.0923Z" fill="#585858"/>
<path fill-rule="evenodd" clip-rule="evenodd" d="M36.1053 22.0976C34.0485 19.8821 31.9918 17.6664 29.9348 15.445C29.3001 14.7614 28.6713 14.0839 28.0366 13.4003C27.8719 13.2233 27.5545 13.2233 27.3898 13.4003C25.333 15.6158 23.2763 17.8313 21.2191 20.0529C20.5846 20.7365 19.9558 21.414 19.3211 22.0976C18.9182 22.5308 19.5653 23.1777 19.9682 22.7444C22.0249 20.5292 24.0816 18.3134 26.1386 16.092C26.7731 15.4084 27.4021 14.731 28.0366 14.0474C27.823 14.0474 27.6033 14.0474 27.3898 14.0474C29.4465 16.2626 31.5033 18.4784 33.5602 20.6998C34.1947 21.3834 34.8237 22.0608 35.4582 22.7444C35.8611 23.1777 36.5079 22.5308 36.1053 22.0976Z" fill="#585858"/>
<path fill-rule="evenodd" clip-rule="evenodd" d="M14.402 38.857C14.0539 37.734 15.1955 36.7146 16.2635 37.2884C16.7822 37.5693 17.246 36.7758 16.7274 36.4949C15.8788 36.0372 14.9207 36.1471 14.1761 36.7452C13.4866 37.2945 13.2669 38.2833 13.517 39.1012C13.5519 39.212 13.5435 39.3682 13.6056 39.4458C13.6755 39.5329 13.8191 39.5345 13.9203 39.5285C14.1864 39.5128 14.5014 39.1834 14.402 38.857Z" fill="#585858"/>
<path fill-rule="evenodd" clip-rule="evenodd" d="M16.935 37.0138C17.3438 36.013 18.5584 35.5308 19.541 35.9762C20.5969 36.4522 20.9936 37.746 20.4322 38.7471C20.1453 39.2597 20.9324 39.7235 21.2257 39.211C22.0313 37.7705 21.5002 35.9214 20.0113 35.1889C18.4732 34.426 16.6849 35.2316 16.0563 36.7758C15.965 37.0076 16.1541 37.2762 16.3738 37.3372C16.6362 37.4044 16.8436 37.2456 16.9352 37.0138H16.935Z" fill="#585858"/>
<path d="M14.1648 41.9692H14.1373V42H14.1648V41.9692Z" fill="#585858"/>
<path d="M41.8677 41.7355H41.0793V42.6902H41.8677V41.7355Z" fill="#585858"/>
<path d="M41.9006 41.976H40.8804V42.6347H41.9006V41.976Z" fill="#585858"/>
<path d="M41.9801 42.0079H41.6841V42.4668H41.9801V42.0079Z" fill="#585858"/>
<path fill-rule="evenodd" clip-rule="evenodd" d="M41.8022 42.3114H41.9842L41.986 42.5211C41.981 42.5553 41.9641 42.5905 41.9465 42.6207L41.8022 42.6181V42.3114Z" fill="#585858"/>
<path fill-rule="evenodd" clip-rule="evenodd" d="M27.7132 14.396L27.2166 13.902L28.1716 13.971L27.7132 14.396Z" fill="#585858"/>
<path fill-rule="evenodd" clip-rule="evenodd" d="M41.4361 16.1529L41.1037 16.117L41.1014 15.546L41.6051 16.0924L41.4361 16.1529Z" fill="#585858"/>
<path fill-rule="evenodd" clip-rule="evenodd" d="M41.0962 22.6328L40.8898 21.9635L41.8214 21.9535L41.0962 22.6328Z" fill="#585858"/>
<path fill-rule="evenodd" clip-rule="evenodd" d="M40.7091 38.7957L40.7945 39.4368L41.8543 39.4354L41.2573 38.8153L40.7091 38.7957Z" fill="#585858"/>
<path d="M16.9631 26.4302H21.2323C21.4299 26.4302 21.6096 26.5106 21.7396 26.6405C21.8695 26.7705 21.9499 26.9498 21.9499 27.1478V33.0693C21.9499 33.2669 21.8695 33.4464 21.7396 33.5764C21.6096 33.7063 21.4301 33.7869 21.2323 33.7869H16.9631C16.7655 33.7869 16.586 33.7063 16.456 33.5764C16.3261 33.4464 16.2454 33.2671 16.2454 33.0693V27.1478C16.2454 26.95 16.3261 26.7705 16.456 26.6405C16.586 26.5106 16.7653 26.4302 16.9631 26.4302ZM21.1099 27.27H17.0855V32.9467H21.1099V27.27Z" fill="#585858"/>
<path d="M33.8708 26.4302H38.1398C38.3376 26.4302 38.5171 26.5106 38.6471 26.6405C38.777 26.7705 38.8574 26.9498 38.8574 27.1478V33.0693C38.8574 33.2669 38.777 33.4464 38.6471 33.5764C38.5171 33.7063 38.3378 33.7869 38.1398 33.7869H33.8708C33.673 33.7869 33.4935 33.7063 33.3635 33.5764C33.2335 33.4464 33.1531 33.2671 33.1531 33.0693V27.1478C33.1531 26.95 33.2335 26.7705 33.3635 26.6405C33.4935 26.5106 33.6728 26.4302 33.8708 26.4302ZM38.0174 27.27H33.993V32.9467H38.0174V27.27Z" fill="#585858"/>
<path d="M24.7107 25.974H30.5718C30.885 25.974 31.1696 26.1019 31.3756 26.3079C31.5814 26.5137 31.7093 26.7985 31.7093 27.1117V38.1699C31.7093 38.4832 31.5814 38.7676 31.3756 38.9736C31.1696 39.1794 30.8848 39.3073 30.5718 39.3073H24.7107C24.3973 39.3073 24.1127 39.1794 23.9069 38.9736C23.7009 38.7676 23.573 38.483 23.573 38.1699V27.1117C23.573 26.7983 23.7009 26.5137 23.9069 26.3079C24.1127 26.1019 24.3975 25.974 24.7107 25.974ZM30.5718 26.7613H24.7107C24.6145 26.7613 24.5272 26.8008 24.4635 26.8645C24.3998 26.9283 24.3601 27.0157 24.3601 27.1119V38.1701C24.3601 38.266 24.3996 38.3535 24.4635 38.4172C24.527 38.4807 24.6145 38.5205 24.7107 38.5205H30.5718C30.6678 38.5205 30.7553 38.4809 30.819 38.4172C30.8825 38.3537 30.9222 38.266 30.9222 38.1701V27.1119C30.9222 27.0157 30.8827 26.9285 30.819 26.8645C30.7555 26.801 30.6678 26.7613 30.5718 26.7613Z" fill="#585858"/>
<path d="M27.7131 18.4629C28.452 18.4629 29.1216 18.763 29.6058 19.2472C30.0903 19.7317 30.3902 20.4011 30.3902 21.14C30.3902 21.8766 30.0905 22.546 29.6058 23.0309L29.604 23.0327C29.1191 23.5172 28.4497 23.817 27.7131 23.817C26.9742 23.817 26.305 23.5174 25.8203 23.0327C25.3364 22.5487 25.036 21.8788 25.036 21.14C25.036 20.4022 25.3361 19.7335 25.8203 19.249L25.8222 19.2472C26.3066 18.7632 26.9754 18.4629 27.7131 18.4629ZM28.9405 19.9123C28.6267 19.5985 28.1925 19.4041 27.7131 19.4041C27.233 19.4041 26.7986 19.5983 26.4847 19.9114C26.1716 20.2252 25.9775 20.6596 25.9775 21.1397C25.9775 21.6192 26.1718 22.0533 26.4857 22.3672C26.7997 22.6812 27.2337 22.8753 27.7131 22.8753C28.1939 22.8753 28.6278 22.6817 28.9405 22.369L28.9423 22.3672C29.255 22.0545 29.4487 21.6205 29.4487 21.1397C29.4487 20.6603 29.2545 20.2264 28.9405 19.9123Z" fill="#585858"/>
</svg>
