<svg width="14" height="24" viewBox="0 0 14 24" fill="none" xmlns="http://www.w3.org/2000/svg">
<path d="M11.4003 0H2.5988C1.17067 0 0 1.1233 0 2.49461V21.5037C0 22.875 1.17067 24 2.5988 24H11.4003C12.8298 24 14 22.875 14 21.5037V2.49461C14 1.1233 12.8298 0 11.4003 0ZM7.41686 1.6304C7.41686 1.85199 7.22995 2.03267 7.00221 2.03267C6.76781 2.03267 6.58358 1.85199 6.58358 1.6304C6.58358 1.41223 6.76781 1.23154 7.00221 1.23154C7.22995 1.23154 7.41686 1.41223 7.41686 1.6304ZM8.60037 22.3338C8.60037 22.5026 8.45609 22.6389 8.2803 22.6389H5.72013C5.54343 22.6389 5.39916 22.5026 5.39916 22.3338V22.1795C5.39916 22.0117 5.54343 21.8727 5.72013 21.8727H8.2803C8.45609 21.8727 8.60037 22.0117 8.60037 22.1795V22.3338ZM12.6256 20.5526H1.37443V3.4449H12.6256V20.5526Z" fill="#585858"/>
</svg>
